<svg width="22" height="22" viewBox="0 0 22 22" fill="none" xmlns="http://www.w3.org/2000/svg">
<circle cx="11" cy="11" r="11" fill="white"/>
<path d="M12.8368 10.8086L10.2632 9.60781C10.0386 9.50354 9.85417 9.62042 9.85417 9.86906V12.1309C9.85417 12.3796 10.0386 12.4965 10.2632 12.3922L12.8356 11.1914C13.0614 11.0859 13.0614 10.9141 12.8368 10.8086ZM11 0C4.92479 0 0 4.92479 0 11C0 17.0752 4.92479 22 11 22C17.0752 22 22 17.0752 22 11C22 4.92479 17.0752 0 11 0ZM11 15.4687C5.36938 15.4687 5.27083 14.9611 5.27083 11C5.27083 7.03885 5.36938 6.53125 11 6.53125C16.6306 6.53125 16.7292 7.03885 16.7292 11C16.7292 14.9611 16.6306 15.4687 11 15.4687Z" fill="#08354F"/>
</svg>
