<svg width="22" height="22" viewBox="0 0 22 22" fill="none" xmlns="http://www.w3.org/2000/svg">
<circle cx="11" cy="11" r="11" fill="#08354F"/>
<path fill-rule="evenodd" clip-rule="evenodd" d="M8.19663 4.04135C8.94312 4.00698 9.18113 3.99934 11.0827 3.99934C12.9842 3.99934 13.2222 4.00762 13.9681 4.04135C14.7139 4.07507 15.2231 4.19408 15.6685 4.36654C16.135 4.54282 16.5582 4.81838 16.9082 5.17476C17.2646 5.52414 17.5395 5.94671 17.7152 6.41382C17.8883 6.8593 18.0066 7.36841 18.041 8.11299C18.0754 8.86075 18.083 9.09876 18.083 10.9997C18.083 12.9012 18.0747 13.1392 18.041 13.8857C18.0073 14.6303 17.8883 15.1394 17.7152 15.5849C17.5395 16.0521 17.2641 16.4753 16.9082 16.8252C16.5582 17.1816 16.135 17.4565 15.6685 17.6322C15.2231 17.8053 14.7139 17.9236 13.9694 17.958C13.2222 17.9924 12.9842 18 11.0827 18C9.18113 18 8.94312 17.9917 8.19663 17.958C7.45205 17.9243 6.94294 17.8053 6.49746 17.6322C6.0303 17.4565 5.60704 17.1811 5.25713 16.8252C4.901 16.4756 4.6254 16.0526 4.44955 15.5855C4.27709 15.14 4.15872 14.6309 4.12435 13.8863C4.08999 13.1386 4.08235 12.9006 4.08235 10.9997C4.08235 9.09813 4.09062 8.86012 4.12435 8.11426C4.15808 7.36841 4.27709 6.8593 4.44955 6.41382C4.62566 5.94676 4.90147 5.52371 5.25777 5.17413C5.60718 4.81806 6.03002 4.54247 6.49683 4.36654C6.9423 4.19408 7.45142 4.07571 8.196 4.04135H8.19663ZM13.9114 5.3014C13.1732 5.26768 12.9518 5.26068 11.0827 5.26068C9.21359 5.26068 8.99213 5.26768 8.25391 5.3014C7.57106 5.33259 7.20068 5.4465 6.95376 5.5426C6.62729 5.66988 6.39373 5.8207 6.14872 6.06571C5.91647 6.29167 5.73773 6.56673 5.62561 6.87075C5.52951 7.11767 5.4156 7.48805 5.38441 8.1709C5.35068 8.90912 5.34368 9.13058 5.34368 10.9997C5.34368 12.8688 5.35068 13.0902 5.38441 13.8284C5.4156 14.5113 5.52951 14.8817 5.62561 15.1286C5.73761 15.4322 5.91644 15.7077 6.14872 15.9336C6.37464 16.1659 6.6502 16.3447 6.95376 16.4567C7.20068 16.5528 7.57106 16.6668 8.25391 16.6979C8.99213 16.7317 9.21295 16.7387 11.0827 16.7387C12.9524 16.7387 13.1732 16.7317 13.9114 16.6979C14.5943 16.6668 14.9647 16.5528 15.2116 16.4567C15.5381 16.3295 15.7716 16.1786 16.0166 15.9336C16.2489 15.7077 16.4277 15.4322 16.5398 15.1286C16.6358 14.8817 16.7498 14.5113 16.7809 13.8284C16.8147 13.0902 16.8217 12.8688 16.8217 10.9997C16.8217 9.13058 16.8147 8.90912 16.7809 8.1709C16.7498 7.48805 16.6358 7.11767 16.5398 6.87075C16.4125 6.54428 16.2616 6.31072 16.0166 6.06571C15.7907 5.83347 15.5156 5.65474 15.2116 5.5426C14.9647 5.4465 14.5943 5.33259 13.9114 5.3014V5.3014ZM10.1885 13.1577C10.6879 13.3655 11.2439 13.3936 11.7617 13.2371C12.2794 13.0805 12.7267 12.7491 13.0272 12.2993C13.3278 11.8496 13.4628 11.3095 13.4094 10.7713C13.3559 10.233 13.1172 9.73005 12.7341 9.34823C12.4899 9.10416 12.1946 8.91727 11.8695 8.80102C11.5444 8.68478 11.1975 8.64206 10.8539 8.67595C10.5103 8.70984 10.1785 8.8195 9.88232 8.99702C9.58617 9.17455 9.33307 9.41552 9.14123 9.70261C8.9494 9.98969 8.8236 10.3157 8.7729 10.6573C8.7222 10.9988 8.74785 11.3473 8.84801 11.6778C8.94817 12.0082 9.12035 12.3123 9.35215 12.5682C9.58395 12.8241 9.8696 13.0254 10.1885 13.1577ZM8.53838 8.45537C8.8725 8.12125 9.26916 7.85621 9.70571 7.67538C10.1423 7.49456 10.6102 7.40149 11.0827 7.40149C11.5552 7.40149 12.0231 7.49456 12.4596 7.67538C12.8962 7.85621 13.2929 8.12125 13.627 8.45537C13.9611 8.78949 14.2261 9.18615 14.407 9.6227C14.5878 10.0593 14.6809 10.5271 14.6809 10.9997C14.6809 11.4722 14.5878 11.9401 14.407 12.3766C14.2261 12.8132 13.9611 13.2098 13.627 13.544C12.9522 14.2188 12.037 14.5979 11.0827 14.5979C10.1284 14.5979 9.21317 14.2188 8.53838 13.544C7.86359 12.8692 7.48449 11.954 7.48449 10.9997C7.48449 10.0454 7.86359 9.13016 8.53838 8.45537V8.45537ZM15.4789 7.93735C15.5617 7.85924 15.628 7.76532 15.6738 7.66113C15.7197 7.55695 15.7441 7.44463 15.7458 7.33082C15.7475 7.21701 15.7263 7.10402 15.6835 6.99854C15.6407 6.89307 15.5772 6.79725 15.4967 6.71677C15.4162 6.63628 15.3204 6.57276 15.2149 6.52997C15.1094 6.48718 14.9964 6.46599 14.8826 6.46765C14.7688 6.46931 14.6565 6.49379 14.5523 6.53963C14.4481 6.58548 14.3542 6.65176 14.2761 6.73456C14.1242 6.89559 14.041 7.10948 14.0443 7.33082C14.0475 7.55216 14.1369 7.76353 14.2934 7.92006C14.4499 8.07659 14.6613 8.16596 14.8826 8.16918C15.104 8.17241 15.3179 8.08925 15.4789 7.93735V7.93735Z" fill="white"/>
</svg>
