<?xml version="1.0" encoding="UTF-8"?>
<!--Generator: Apple Native CoreSVG 149-->
<!DOCTYPE svg
PUBLIC "-//W3C//DTD SVG 1.1//EN"
       "http://www.w3.org/Graphics/SVG/1.1/DTD/svg11.dtd">
<svg version="1.1" xmlns="http://www.w3.org/2000/svg" xmlns:xlink="http://www.w3.org/1999/xlink" width="3300" height="2200">
 <!--glyph: "uni100663.medium", point size: 100.000000, font version: "Version 16.0d18e1", template writer version: "8"-->
 <g id="Notes">
  <rect height="2200" id="artboard" style="fill:white;opacity:1" width="3300" x="0" y="0"/>
  <line id="" style="fill:none;stroke:black;opacity:1;stroke-width:0.5;" x1="263" x2="3036" y1="292" y2="292"/>
  <text style="stroke:none;fill:black;font-family:-apple-system,&quot;SF Pro Display&quot;,&quot;SF Pro Text&quot;,Helvetica,sans-serif;font-weight:bold;" transform="matrix(1 0 0 1 263 322)">Weight/Scale Variations</text>
  <text style="stroke:none;fill:black;font-family:-apple-system,&quot;SF Pro Display&quot;,&quot;SF Pro Text&quot;,Helvetica,sans-serif;text-anchor:middle;" transform="matrix(1 0 0 1 559.711 322)">Ultralight</text>
  <text style="stroke:none;fill:black;font-family:-apple-system,&quot;SF Pro Display&quot;,&quot;SF Pro Text&quot;,Helvetica,sans-serif;text-anchor:middle;" transform="matrix(1 0 0 1 856.422 322)">Thin</text>
  <text style="stroke:none;fill:black;font-family:-apple-system,&quot;SF Pro Display&quot;,&quot;SF Pro Text&quot;,Helvetica,sans-serif;text-anchor:middle;" transform="matrix(1 0 0 1 1153.13 322)">Light</text>
  <text style="stroke:none;fill:black;font-family:-apple-system,&quot;SF Pro Display&quot;,&quot;SF Pro Text&quot;,Helvetica,sans-serif;text-anchor:middle;" transform="matrix(1 0 0 1 1449.84 322)">Regular</text>
  <text style="stroke:none;fill:black;font-family:-apple-system,&quot;SF Pro Display&quot;,&quot;SF Pro Text&quot;,Helvetica,sans-serif;text-anchor:middle;" transform="matrix(1 0 0 1 1746.56 322)">Medium</text>
  <text style="stroke:none;fill:black;font-family:-apple-system,&quot;SF Pro Display&quot;,&quot;SF Pro Text&quot;,Helvetica,sans-serif;text-anchor:middle;" transform="matrix(1 0 0 1 2043.27 322)">Semibold</text>
  <text style="stroke:none;fill:black;font-family:-apple-system,&quot;SF Pro Display&quot;,&quot;SF Pro Text&quot;,Helvetica,sans-serif;text-anchor:middle;" transform="matrix(1 0 0 1 2339.98 322)">Bold</text>
  <text style="stroke:none;fill:black;font-family:-apple-system,&quot;SF Pro Display&quot;,&quot;SF Pro Text&quot;,Helvetica,sans-serif;text-anchor:middle;" transform="matrix(1 0 0 1 2636.69 322)">Heavy</text>
  <text style="stroke:none;fill:black;font-family:-apple-system,&quot;SF Pro Display&quot;,&quot;SF Pro Text&quot;,Helvetica,sans-serif;text-anchor:middle;" transform="matrix(1 0 0 1 2933.4 322)">Black</text>
  <line id="" style="fill:none;stroke:black;opacity:1;stroke-width:0.5;" x1="263" x2="3036" y1="1903" y2="1903"/>
  <g id="" transform="matrix(1 0 0 1 263 1933)">
   <path d="M9.24805 0.830078C13.5547 0.830078 17.1387-2.74414 17.1387-7.05078C17.1387-11.3574 13.5449-14.9316 9.23828-14.9316C4.94141-14.9316 1.36719-11.3574 1.36719-7.05078C1.36719-2.74414 4.95117 0.830078 9.24805 0.830078ZM9.24805-0.654297C5.70312-0.654297 2.87109-3.49609 2.87109-7.05078C2.87109-10.6055 5.69336-13.4473 9.23828-13.4473C12.793-13.4473 15.6348-10.6055 15.6445-7.05078C15.6543-3.49609 12.8027-0.654297 9.24805-0.654297ZM6.39648-6.31836L8.50586-6.31836L8.50586-4.19922C8.50586-3.75977 8.79883-3.45703 9.22852-3.45703C9.67773-3.45703 9.9707-3.75977 9.9707-4.19922L9.9707-6.31836L12.0996-6.31836C12.5391-6.31836 12.8418-6.61133 12.8418-7.04102C12.8418-7.48047 12.5391-7.7832 12.0996-7.7832L9.9707-7.7832L9.9707-9.89258C9.9707-10.3418 9.67773-10.6445 9.22852-10.6445C8.79883-10.6445 8.50586-10.3418 8.50586-9.89258L8.50586-7.7832L6.39648-7.7832C5.94727-7.7832 5.64453-7.48047 5.64453-7.04102C5.64453-6.61133 5.94727-6.31836 6.39648-6.31836Z"/>
  </g>
  <g id="" transform="matrix(1 0 0 1 281.506 1933)">
   <path d="M11.709 2.91016C17.1582 2.91016 21.6699-1.61133 21.6699-7.05078C21.6699-12.5 17.1484-17.0117 11.6992-17.0117C6.25977-17.0117 1.74805-12.5 1.74805-7.05078C1.74805-1.61133 6.26953 2.91016 11.709 2.91016ZM11.709 1.25C7.09961 1.25 3.41797-2.44141 3.41797-7.05078C3.41797-11.6602 7.08984-15.3516 11.6992-15.3516C16.3086-15.3516 20-11.6602 20.0098-7.05078C20.0195-2.44141 16.3184 1.25 11.709 1.25ZM7.98828-6.23047L10.8789-6.23047L10.8789-3.32031C10.8789-2.83203 11.2109-2.5 11.6895-2.5C12.1777-2.5 12.5195-2.83203 12.5195-3.32031L12.5195-6.23047L15.4297-6.23047C15.918-6.23047 16.25-6.5625 16.25-7.04102C16.25-7.5293 15.918-7.87109 15.4297-7.87109L12.5195-7.87109L12.5195-10.7617C12.5195-11.2695 12.1777-11.6016 11.6895-11.6016C11.2109-11.6016 10.8789-11.2598 10.8789-10.7617L10.8789-7.87109L7.98828-7.87109C7.48047-7.87109 7.14844-7.5293 7.14844-7.04102C7.14844-6.5625 7.49023-6.23047 7.98828-6.23047Z"/>
  </g>
  <g id="" transform="matrix(1 0 0 1 304.924 1933)">
   <path d="M14.9707 5.66406C21.9336 5.66406 27.6953-0.0976562 27.6953-7.05078C27.6953-14.0137 21.9238-19.7754 14.9609-19.7754C8.00781-19.7754 2.25586-14.0137 2.25586-7.05078C2.25586-0.0976562 8.01758 5.66406 14.9707 5.66406ZM14.9707 3.84766C8.93555 3.84766 4.08203-1.01562 4.08203-7.05078C4.08203-13.0957 8.92578-17.9492 14.9609-17.9492C21.0059-17.9492 25.8594-13.0957 25.8691-7.05078C25.8789-1.01562 21.0156 3.84766 14.9707 3.84766ZM10.0586-6.14258L14.0625-6.14258L14.0625-2.12891C14.0625-1.5918 14.4336-1.2207 14.9512-1.2207C15.4883-1.2207 15.8594-1.5918 15.8594-2.12891L15.8594-6.14258L19.8828-6.14258C20.4102-6.14258 20.791-6.51367 20.791-7.03125C20.791-7.56836 20.4199-7.94922 19.8828-7.94922L15.8594-7.94922L15.8594-11.9531C15.8594-12.5098 15.4883-12.8809 14.9512-12.8809C14.4336-12.8809 14.0625-12.5 14.0625-11.9531L14.0625-7.94922L10.0586-7.94922C9.50195-7.94922 9.13086-7.56836 9.13086-7.03125C9.13086-6.51367 9.51172-6.14258 10.0586-6.14258Z"/>
  </g>
  <text style="stroke:none;fill:black;font-family:-apple-system,&quot;SF Pro Display&quot;,&quot;SF Pro Text&quot;,Helvetica,sans-serif;font-weight:bold;" transform="matrix(1 0 0 1 263 1953)">Design Variations</text>
  <text style="stroke:none;fill:black;font-family:-apple-system,&quot;SF Pro Display&quot;,&quot;SF Pro Text&quot;,Helvetica,sans-serif;" transform="matrix(1 0 0 1 263 1971)">Symbols are supported in up to nine weights and three scales.</text>
  <text style="stroke:none;fill:black;font-family:-apple-system,&quot;SF Pro Display&quot;,&quot;SF Pro Text&quot;,Helvetica,sans-serif;" transform="matrix(1 0 0 1 263 1989)">For optimal layout with text and other symbols, vertically align</text>
  <text style="stroke:none;fill:black;font-family:-apple-system,&quot;SF Pro Display&quot;,&quot;SF Pro Text&quot;,Helvetica,sans-serif;" transform="matrix(1 0 0 1 263 2007)">symbols with the adjacent text.</text>
  <line id="" style="fill:none;stroke:#00AEEF;stroke-width:0.5;opacity:1.0;" x1="776" x2="776" y1="1919" y2="1933"/>
  <g id="" transform="matrix(1 0 0 1 776 1933)">
   <path d="M3.31055 0.126953C3.82812 0.126953 4.08203-0.0683594 4.26758-0.605469L5.52734-4.0625L11.2891-4.0625L12.5488-0.605469C12.7344-0.0683594 12.9883 0.126953 13.4961 0.126953C14.0137 0.126953 14.3457-0.185547 14.3457-0.673828C14.3457-0.839844 14.3164-0.986328 14.2383-1.20117L9.6582-13.3887C9.43359-13.9941 9.0332-14.2871 8.4082-14.2871C7.80273-14.2871 7.39258-13.9941 7.17773-13.3984L2.59766-1.19141C2.51953-0.976562 2.49023-0.830078 2.49023-0.664062C2.49023-0.175781 2.80273 0.126953 3.31055 0.126953ZM6.00586-5.53711L8.37891-12.1094L8.42773-12.1094L10.8008-5.53711Z"/>
  </g>
  <line id="" style="fill:none;stroke:#00AEEF;stroke-width:0.5;opacity:1.0;" x1="792.836" x2="792.836" y1="1919" y2="1933"/>
  <text style="stroke:none;fill:black;font-family:-apple-system,&quot;SF Pro Display&quot;,&quot;SF Pro Text&quot;,Helvetica,sans-serif;font-weight:bold;" transform="matrix(1 0 0 1 776 1953)">Margins</text>
  <text style="stroke:none;fill:black;font-family:-apple-system,&quot;SF Pro Display&quot;,&quot;SF Pro Text&quot;,Helvetica,sans-serif;" transform="matrix(1 0 0 1 776 1971)">Leading and trailing margins on the left and right side of each symbol</text>
  <text style="stroke:none;fill:black;font-family:-apple-system,&quot;SF Pro Display&quot;,&quot;SF Pro Text&quot;,Helvetica,sans-serif;" transform="matrix(1 0 0 1 776 1989)">can be adjusted by modifying the x-location of the margin guidelines.</text>
  <text style="stroke:none;fill:black;font-family:-apple-system,&quot;SF Pro Display&quot;,&quot;SF Pro Text&quot;,Helvetica,sans-serif;" transform="matrix(1 0 0 1 776 2007)">Modifications are automatically applied proportionally to all</text>
  <text style="stroke:none;fill:black;font-family:-apple-system,&quot;SF Pro Display&quot;,&quot;SF Pro Text&quot;,Helvetica,sans-serif;" transform="matrix(1 0 0 1 776 2025)">scales and weights.</text>
  <g id="" transform="matrix(1 0 0 1 1289 1933)">
   <path d="M2.8418 1.86523L4.54102 3.57422C5.40039 4.44336 6.38672 4.38477 7.31445 3.35938L17.4902-7.85156C17.7539-7.76367 18.0273-7.7832 18.3398-7.8418L19.4043-8.03711L20.0684-7.36328L20.0293-6.80664C19.9902-6.30859 20.1172-5.92773 20.6055-5.44922L21.3672-4.70703C21.8457-4.22852 22.4609-4.19922 22.9297-4.66797L25.8398-7.58789C26.3086-8.05664 26.2891-8.65234 25.8105-9.13086L25.0391-9.89258C24.5605-10.3711 24.1895-10.5273 23.7109-10.4883L23.1348-10.4395L22.4902-11.0742L22.7344-12.1973C22.8613-12.7637 22.7051-13.2031 22.1191-13.7891L19.9219-15.9766C16.582-19.2969 12.1484-19.2188 9.25781-16.3281C8.83789-15.918 8.80859-15.3418 9.04297-14.9512C9.27734-14.5898 9.73633-14.3555 10.3809-14.5215C11.8457-14.8633 13.3691-14.9219 14.7949-13.9844L14.209-12.5293C14.0137-12.0508 13.9844-11.6504 14.1113-11.2891L3.04688-0.898438C2.06055 0.0195312 1.98242 0.996094 2.8418 1.86523ZM10.752-15.957C13.1836-17.7344 16.4746-17.4316 18.7012-15.2051L21.1328-12.793C21.3672-12.5586 21.4062-12.373 21.3379-12.0312L21.0156-10.5469L22.5195-9.0625L23.5059-9.12109C23.7598-9.13086 23.8379-9.11133 24.0332-8.91602L24.6094-8.33984L22.168-5.89844L21.5918-6.47461C21.3965-6.66992 21.3672-6.74805 21.377-7.01172L21.4453-7.98828L19.9512-9.47266L18.4277-9.21875C18.1055-9.15039 17.959-9.17969 17.7148-9.41406L15.7129-11.416C15.459-11.6504 15.4297-11.8164 15.5859-12.1875L16.4648-14.2773C14.9023-15.7324 12.8711-16.3574 10.8398-15.7617C10.6836-15.7227 10.625-15.8496 10.752-15.957ZM5.27344 2.30469L4.10156 1.14258C3.63281 0.683594 3.74023 0.341797 4.14062-0.0195312L14.9512-10.1953L16.416-8.71094L6.42578 2.27539C6.07422 2.67578 5.74219 2.77344 5.27344 2.30469Z"/>
  </g>
  <text style="stroke:none;fill:black;font-family:-apple-system,&quot;SF Pro Display&quot;,&quot;SF Pro Text&quot;,Helvetica,sans-serif;font-weight:bold;" transform="matrix(1 0 0 1 1289 1953)">Exporting</text>
  <text style="stroke:none;fill:black;font-family:-apple-system,&quot;SF Pro Display&quot;,&quot;SF Pro Text&quot;,Helvetica,sans-serif;" transform="matrix(1 0 0 1 1289 1971)">Symbols should be outlined when exporting to ensure the</text>
  <text style="stroke:none;fill:black;font-family:-apple-system,&quot;SF Pro Display&quot;,&quot;SF Pro Text&quot;,Helvetica,sans-serif;" transform="matrix(1 0 0 1 1289 1989)">design is preserved when submitting to Xcode.</text>
  <text id="template-version" style="stroke:none;fill:black;font-family:-apple-system,&quot;SF Pro Display&quot;,&quot;SF Pro Text&quot;,Helvetica,sans-serif;text-anchor:end;" transform="matrix(1 0 0 1 3036 1933)">Template v.2.0</text>
  <text style="stroke:none;fill:black;font-family:-apple-system,&quot;SF Pro Display&quot;,&quot;SF Pro Text&quot;,Helvetica,sans-serif;text-anchor:end;" transform="matrix(1 0 0 1 3036 1951)">Requires Xcode 12 or greater</text>
  <text style="stroke:none;fill:black;font-family:-apple-system,&quot;SF Pro Display&quot;,&quot;SF Pro Text&quot;,Helvetica,sans-serif;text-anchor:end;" transform="matrix(1 0 0 1 3036 1969)">Generated from circles.hexagongrid.fill</text>
  <text style="stroke:none;fill:black;font-family:-apple-system,&quot;SF Pro Display&quot;,&quot;SF Pro Text&quot;,Helvetica,sans-serif;text-anchor:end;" transform="matrix(1 0 0 1 3036 1987)">Typeset at 100 points</text>
  <text style="stroke:none;fill:black;font-family:-apple-system,&quot;SF Pro Display&quot;,&quot;SF Pro Text&quot;,Helvetica,sans-serif;" transform="matrix(1 0 0 1 263 726)">Small</text>
  <text style="stroke:none;fill:black;font-family:-apple-system,&quot;SF Pro Display&quot;,&quot;SF Pro Text&quot;,Helvetica,sans-serif;" transform="matrix(1 0 0 1 263 1156)">Medium</text>
  <text style="stroke:none;fill:black;font-family:-apple-system,&quot;SF Pro Display&quot;,&quot;SF Pro Text&quot;,Helvetica,sans-serif;" transform="matrix(1 0 0 1 263 1586)">Large</text>
 </g>
 <g id="Guides">
  <g id="H-reference" style="fill:#27AAE1;stroke:none;" transform="matrix(1 0 0 1 339 696)">
   <path d="M0.976562 0L3.66211 0L12.9883-24.4629L45.752-24.4629L55.127 0L57.7637 0L30.6152-70.459L28.125-70.459ZM29.3457-67.1387L29.4434-67.1387L44.873-26.709L13.8672-26.709Z"/>
  </g>
  <line id="Baseline-S" style="fill:none;stroke:#27AAE1;opacity:1;stroke-width:0.5;" x1="263" x2="3036" y1="696" y2="696"/>
  <line id="Capline-S" style="fill:none;stroke:#27AAE1;opacity:1;stroke-width:0.5;" x1="263" x2="3036" y1="625.541" y2="625.541"/>
  <g id="H-reference" style="fill:#27AAE1;stroke:none;" transform="matrix(1 0 0 1 339 1126)">
   <path d="M0.976562 0L3.66211 0L12.9883-24.4629L45.752-24.4629L55.127 0L57.7637 0L30.6152-70.459L28.125-70.459ZM29.3457-67.1387L29.4434-67.1387L44.873-26.709L13.8672-26.709Z"/>
  </g>
  <line id="Baseline-M" style="fill:none;stroke:#27AAE1;opacity:1;stroke-width:0.5;" x1="263" x2="3036" y1="1126" y2="1126"/>
  <line id="Capline-M" style="fill:none;stroke:#27AAE1;opacity:1;stroke-width:0.5;" x1="263" x2="3036" y1="1055.54" y2="1055.54"/>
  <g id="H-reference" style="fill:#27AAE1;stroke:none;" transform="matrix(1 0 0 1 339 1556)">
   <path d="M0.976562 0L3.66211 0L12.9883-24.4629L45.752-24.4629L55.127 0L57.7637 0L30.6152-70.459L28.125-70.459ZM29.3457-67.1387L29.4434-67.1387L44.873-26.709L13.8672-26.709Z"/>
  </g>
  <line id="Baseline-L" style="fill:none;stroke:#27AAE1;opacity:1;stroke-width:0.5;" x1="263" x2="3036" y1="1556" y2="1556"/>
  <line id="Capline-L" style="fill:none;stroke:#27AAE1;opacity:1;stroke-width:0.5;" x1="263" x2="3036" y1="1485.54" y2="1485.54"/>
  <line id="left-margin" style="fill:none;stroke:#00AEEF;stroke-width:0.5;opacity:1.0;" x1="1390.71" x2="1390.71" y1="1030.79" y2="1150.12"/>
  <line id="right-margin" style="fill:none;stroke:#00AEEF;stroke-width:0.5;opacity:1.0;" x1="1508.98" x2="1508.98" y1="1030.79" y2="1150.12"/>
 </g>
 <g id="Symbols">
  <g id="Black-L" transform="matrix(1 0 0 1 2850 1556)">
   <path d="M57.7637-60.3027C69.1406-60.3027 78.6621-69.7754 78.6621-81.1035C78.6621-92.5293 69.1406-102.1 57.7637-102.1C46.3867-102.1 36.9141-92.5293 36.9141-81.1035C36.9141-69.9707 46.2891-60.3027 57.7637-60.3027ZM109.033-60.3027C120.41-60.3027 129.883-69.7754 129.883-81.1035C129.883-92.5293 120.41-102.1 109.033-102.1C97.6562-102.1 88.1348-92.5293 88.1348-81.1035C88.1348-69.7754 97.6562-60.3027 109.033-60.3027ZM83.3984-14.4531C94.7754-14.4531 104.248-23.877 104.248-35.2539C104.248-46.6797 94.7754-56.1035 83.3984-56.1035C72.0215-56.1035 62.5488-46.6797 62.5488-35.2539C62.5488-23.877 72.0215-14.4531 83.3984-14.4531ZM32.1777-14.4531C43.5547-14.4531 53.0762-23.877 53.0762-35.2539C53.0762-46.6797 43.5547-56.1035 32.1777-56.1035C20.8008-56.1035 11.2793-46.6797 11.2793-35.2539C11.2793-23.9746 20.6543-14.4531 32.1777-14.4531ZM134.619-14.4531C145.996-14.4531 155.518-23.877 155.518-35.2539C155.518-46.6797 145.996-56.1035 134.619-56.1035C123.242-56.1035 113.721-46.6797 113.721-35.2539C113.721-23.877 123.242-14.4531 134.619-14.4531ZM57.7637 31.543C69.1406 31.543 78.6621 21.9727 78.6621 10.5957C78.6621-0.78125 69.1406-10.2051 57.7637-10.2051C46.3867-10.2051 36.9141-0.78125 36.9141 10.5957C36.9141 21.875 46.2891 31.543 57.7637 31.543ZM109.033 31.543C120.41 31.543 129.883 21.9727 129.883 10.5957C129.883-0.78125 120.41-10.2051 109.033-10.2051C97.6562-10.2051 88.1348-0.78125 88.1348 10.5957C88.1348 21.9727 97.6562 31.543 109.033 31.543Z"/>
  </g>
  <g id="Heavy-L" transform="matrix(1 0 0 1 2555.17 1556)">
   <path d="M56.543-59.668C67.627-59.668 76.9043-68.8965 76.9043-79.9316C76.9043-91.0156 67.627-100.342 56.543-100.342C45.459-100.342 36.2305-91.0156 36.2305-79.9316C36.2305-69.043 45.3613-59.668 56.543-59.668ZM106.494-59.668C117.578-59.668 126.807-68.8965 126.807-79.9316C126.807-91.0156 117.578-100.342 106.494-100.342C95.4102-100.342 86.1328-91.0156 86.1328-79.9316C86.1328-68.8965 95.4102-59.668 106.494-59.668ZM81.543-14.9902C92.627-14.9902 101.807-24.1699 101.807-35.2539C101.807-46.3867 92.627-55.5664 81.543-55.5664C70.4102-55.5664 61.2305-46.3867 61.2305-35.2539C61.2305-24.1699 70.4102-14.9902 81.543-14.9902ZM31.6406-14.9902C42.7246-14.9902 51.9531-24.1699 51.9531-35.2539C51.9531-46.3867 42.7246-55.5664 31.6406-55.5664C20.5078-55.5664 11.2793-46.3867 11.2793-35.2539C11.2793-24.2676 20.4102-14.9902 31.6406-14.9902ZM131.445-14.9902C142.529-14.9902 151.758-24.1699 151.758-35.2539C151.758-46.3867 142.529-55.5664 131.445-55.5664C120.312-55.5664 111.084-46.3867 111.084-35.2539C111.084-24.1699 120.312-14.9902 131.445-14.9902ZM56.543 29.7852C67.627 29.7852 76.9043 20.5078 76.9043 9.42383C76.9043-1.66016 67.627-10.8887 56.543-10.8887C45.459-10.8887 36.2305-1.66016 36.2305 9.42383C36.2305 20.4102 45.3613 29.7852 56.543 29.7852ZM106.494 29.7852C117.578 29.7852 126.807 20.5078 126.807 9.42383C126.807-1.66016 117.578-10.8887 106.494-10.8887C95.4102-10.8887 86.1328-1.66016 86.1328 9.42383C86.1328 20.5078 95.4102 29.7852 106.494 29.7852Z"/>
  </g>
  <g id="Bold-L" transform="matrix(1 0 0 1 2260.56 1556)">
   <path d="M55.2246-58.9355C65.9668-58.9355 74.9512-67.8711 74.9512-78.6133C74.9512-89.4043 65.9668-98.3887 55.2246-98.3887C44.4336-98.3887 35.498-89.4043 35.498-78.6133C35.498-68.0176 44.3848-58.9355 55.2246-58.9355ZM103.662-58.9355C114.404-58.9355 123.34-67.8711 123.34-78.6133C123.34-89.4043 114.404-98.3887 103.662-98.3887C92.8711-98.3887 83.9355-89.4043 83.9355-78.6133C83.9355-67.8711 92.8711-58.9355 103.662-58.9355ZM79.4434-15.5762C90.1855-15.5762 99.1211-24.5117 99.1211-35.2539C99.1211-46.0449 90.1855-54.9805 79.4434-54.9805C68.6523-54.9805 59.7168-46.0449 59.7168-35.2539C59.7168-24.5117 68.6523-15.5762 79.4434-15.5762ZM31.0059-15.5762C41.7969-15.5762 50.7324-24.5117 50.7324-35.2539C50.7324-46.0449 41.7969-54.9805 31.0059-54.9805C20.2637-54.9805 11.2793-46.0449 11.2793-35.2539C11.2793-24.5605 20.1172-15.5762 31.0059-15.5762ZM127.832-15.5762C138.623-15.5762 147.559-24.5117 147.559-35.2539C147.559-46.0449 138.623-54.9805 127.832-54.9805C117.09-54.9805 108.105-46.0449 108.105-35.2539C108.105-24.5117 117.09-15.5762 127.832-15.5762ZM55.2246 27.832C65.9668 27.832 74.9512 18.8477 74.9512 8.10547C74.9512-2.63672 65.9668-11.5723 55.2246-11.5723C44.4336-11.5723 35.498-2.63672 35.498 8.10547C35.498 18.75 44.3848 27.832 55.2246 27.832ZM103.662 27.832C114.404 27.832 123.34 18.8477 123.34 8.10547C123.34-2.63672 114.404-11.5723 103.662-11.5723C92.8711-11.5723 83.9355-2.63672 83.9355 8.10547C83.9355 18.8477 92.8711 27.832 103.662 27.832Z"/>
  </g>
  <g id="Semibold-L" transform="matrix(1 0 0 1 1965.29 1556)">
   <path d="M54.2969-58.4473C64.8438-58.4473 73.584-67.2363 73.584-77.7344C73.584-88.2324 64.8438-97.0703 54.2969-97.0703C43.75-97.0703 34.9609-88.2324 34.9609-77.7344C34.9609-67.334 43.6523-58.4473 54.2969-58.4473ZM101.709-58.4473C112.207-58.4473 120.996-67.2363 120.996-77.7344C120.996-88.2324 112.207-97.0703 101.709-97.0703C91.1621-97.0703 82.373-88.2324 82.373-77.7344C82.373-67.2363 91.1621-58.4473 101.709-58.4473ZM77.9785-15.9668C88.5254-15.9668 97.2656-24.707 97.2656-35.2539C97.2656-45.8008 88.5254-54.5898 77.9785-54.5898C67.4316-54.5898 58.6914-45.8008 58.6914-35.2539C58.6914-24.707 67.4316-15.9668 77.9785-15.9668ZM30.6152-15.9668C41.1133-15.9668 49.9023-24.707 49.9023-35.2539C49.9023-45.8008 41.1133-54.5898 30.6152-54.5898C20.0684-54.5898 11.2793-45.8008 11.2793-35.2539C11.2793-24.8047 19.9707-15.9668 30.6152-15.9668ZM125.391-15.9668C135.938-15.9668 144.678-24.707 144.678-35.2539C144.678-45.8008 135.938-54.5898 125.391-54.5898C114.844-54.5898 106.055-45.8008 106.055-35.2539C106.055-24.707 114.844-15.9668 125.391-15.9668ZM54.2969 26.5137C64.8438 26.5137 73.584 17.7246 73.584 7.17773C73.584-3.32031 64.8438-12.0605 54.2969-12.0605C43.75-12.0605 34.9609-3.32031 34.9609 7.17773C34.9609 17.627 43.6523 26.5137 54.2969 26.5137ZM101.709 26.5137C112.207 26.5137 120.996 17.7246 120.996 7.17773C120.996-3.32031 112.207-12.0605 101.709-12.0605C91.1621-12.0605 82.373-3.32031 82.373 7.17773C82.373 17.7246 91.1621 26.5137 101.709 26.5137Z"/>
  </g>
  <g id="Medium-L" transform="matrix(1 0 0 1 1669.68 1556)">
   <path d="M53.5645-58.0566C63.9648-58.0566 72.5586-66.6992 72.5586-77.002C72.5586-87.4023 63.9648-96.0449 53.5645-96.0449C43.2129-96.0449 34.5703-87.4023 34.5703-77.002C34.5703-66.7969 43.1152-58.0566 53.5645-58.0566ZM100.195-58.0566C110.547-58.0566 119.189-66.6992 119.189-77.002C119.189-87.4023 110.547-96.0449 100.195-96.0449C89.8438-96.0449 81.2012-87.4023 81.2012-77.002C81.2012-66.6992 89.8438-58.0566 100.195-58.0566ZM76.9043-16.2598C87.2559-16.2598 95.8984-24.9023 95.8984-35.2539C95.8984-45.6543 87.2559-54.248 76.9043-54.248C66.5039-54.248 57.9102-45.6543 57.9102-35.2539C57.9102-24.9023 66.5039-16.2598 76.9043-16.2598ZM30.2734-16.2598C40.625-16.2598 49.2676-24.9023 49.2676-35.2539C49.2676-45.6543 40.625-54.248 30.2734-54.248C19.9219-54.248 11.2793-45.6543 11.2793-35.2539C11.2793-25 19.8242-16.2598 30.2734-16.2598ZM123.486-16.2598C133.887-16.2598 142.48-24.9023 142.48-35.2539C142.48-45.6543 133.887-54.248 123.486-54.248C113.135-54.248 104.492-45.6543 104.492-35.2539C104.492-24.9023 113.135-16.2598 123.486-16.2598ZM53.5645 25.4883C63.9648 25.4883 72.5586 16.8457 72.5586 6.49414C72.5586-3.85742 63.9648-12.4512 53.5645-12.4512C43.2129-12.4512 34.5703-3.85742 34.5703 6.49414C34.5703 16.748 43.1152 25.4883 53.5645 25.4883ZM100.195 25.4883C110.547 25.4883 119.189 16.8457 119.189 6.49414C119.189-3.85742 110.547-12.4512 100.195-12.4512C89.8438-12.4512 81.2012-3.85742 81.2012 6.49414C81.2012 16.8457 89.8438 25.4883 100.195 25.4883Z"/>
  </g>
  <g id="Regular-L" transform="matrix(1 0 0 1 1374.38 1556)">
   <path d="M52.6855-57.5684C62.793-57.5684 71.2402-66.0156 71.2402-76.123C71.2402-86.2793 62.793-94.6777 52.6855-94.6777C42.5293-94.6777 34.082-86.2793 34.082-76.123C34.082-66.1133 42.4316-57.5684 52.6855-57.5684ZM98.2422-57.5684C108.398-57.5684 116.846-66.0156 116.846-76.123C116.846-86.2793 108.398-94.6777 98.2422-94.6777C88.1348-94.6777 79.6875-86.2793 79.6875-76.123C79.6875-66.0156 88.1348-57.5684 98.2422-57.5684ZM75.4395-16.6992C85.5957-16.6992 94.043-25.1465 94.043-35.2539C94.043-45.4102 85.5957-53.8574 75.4395-53.8574C65.332-53.8574 56.8848-45.4102 56.8848-35.2539C56.8848-25.1465 65.332-16.6992 75.4395-16.6992ZM29.8828-16.6992C39.9902-16.6992 48.4375-25.1465 48.4375-35.2539C48.4375-45.4102 39.9902-53.8574 29.8828-53.8574C19.7266-53.8574 11.2793-45.4102 11.2793-35.2539C11.2793-25.1953 19.6289-16.6992 29.8828-16.6992ZM121.045-16.6992C131.201-16.6992 139.648-25.1465 139.648-35.2539C139.648-45.4102 131.201-53.8574 121.045-53.8574C110.938-53.8574 102.49-45.4102 102.49-35.2539C102.49-25.1465 110.938-16.6992 121.045-16.6992ZM52.6855 24.1699C62.793 24.1699 71.2402 15.7227 71.2402 5.56641C71.2402-4.49219 62.793-12.9395 52.6855-12.9395C42.5293-12.9395 34.082-4.49219 34.082 5.56641C34.082 15.625 42.4316 24.1699 52.6855 24.1699ZM98.2422 24.1699C108.398 24.1699 116.846 15.7227 116.846 5.56641C116.846-4.49219 108.398-12.9395 98.2422-12.9395C88.1348-12.9395 79.6875-4.49219 79.6875 5.56641C79.6875 15.7227 88.1348 24.1699 98.2422 24.1699Z"/>
  </g>
  <g id="Light-L" transform="matrix(1 0 0 1 1078.82 1556)">
   <path d="M51.9043-57.1777C61.8652-57.1777 70.166-65.4785 70.166-75.3906C70.166-85.3516 61.8652-93.6523 51.9043-93.6523C41.9434-93.6523 33.6914-85.3516 33.6914-75.3906C33.6914-65.5273 41.8945-57.1777 51.9043-57.1777ZM96.7285-57.1777C106.689-57.1777 114.941-65.4785 114.941-75.3906C114.941-85.3516 106.689-93.6523 96.7285-93.6523C86.7676-93.6523 78.4668-85.3516 78.4668-75.3906C78.4668-65.4785 86.7676-57.1777 96.7285-57.1777ZM74.3164-17.041C84.2773-17.041 92.5781-25.293 92.5781-35.2539C92.5781-45.2148 84.2773-53.5156 74.3164-53.5156C64.3555-53.5156 56.0547-45.2148 56.0547-35.2539C56.0547-25.293 64.3555-17.041 74.3164-17.041ZM29.541-17.041C39.502-17.041 47.7539-25.293 47.7539-35.2539C47.7539-45.2148 39.502-53.5156 29.541-53.5156C19.5801-53.5156 11.2793-45.2148 11.2793-35.2539C11.2793-25.3906 19.4824-17.041 29.541-17.041ZM119.092-17.041C129.053-17.041 137.354-25.293 137.354-35.2539C137.354-45.2148 129.053-53.5156 119.092-53.5156C109.131-53.5156 100.83-45.2148 100.83-35.2539C100.83-25.293 109.131-17.041 119.092-17.041ZM51.9043 23.0957C61.8652 23.0957 70.166 14.7949 70.166 4.88281C70.166-5.07812 61.8652-13.3789 51.9043-13.3789C41.9434-13.3789 33.6914-5.07812 33.6914 4.88281C33.6914 14.7461 41.8945 23.0957 51.9043 23.0957ZM96.7285 23.0957C106.689 23.0957 114.941 14.7949 114.941 4.88281C114.941-5.07812 106.689-13.3789 96.7285-13.3789C86.7676-13.3789 78.4668-5.07812 78.4668 4.88281C78.4668 14.7949 86.7676 23.0957 96.7285 23.0957Z"/>
  </g>
  <g id="Thin-L" transform="matrix(1 0 0 1 783.619 1556)">
   <path d="M50.9277-56.6406C60.6445-56.6406 68.75-64.7461 68.75-74.4629C68.75-84.1797 60.6445-92.2363 50.9277-92.2363C41.2109-92.2363 33.1543-84.1797 33.1543-74.4629C33.1543-64.7949 41.1621-56.6406 50.9277-56.6406ZM94.6777-56.6406C104.395-56.6406 112.451-64.7461 112.451-74.4629C112.451-84.1797 104.395-92.2363 94.6777-92.2363C84.9609-92.2363 76.8555-84.1797 76.8555-74.4629C76.8555-64.7461 84.9609-56.6406 94.6777-56.6406ZM72.8027-17.4805C82.5195-17.4805 90.625-25.5371 90.625-35.2539C90.625-44.9707 82.5195-53.0762 72.8027-53.0762C63.0859-53.0762 54.9805-44.9707 54.9805-35.2539C54.9805-25.5371 63.0859-17.4805 72.8027-17.4805ZM29.1016-17.4805C38.8184-17.4805 46.875-25.5371 46.875-35.2539C46.875-44.9707 38.8184-53.0762 29.1016-53.0762C19.3848-53.0762 11.2793-44.9707 11.2793-35.2539C11.2793-25.6348 19.2871-17.4805 29.1016-17.4805ZM116.504-17.4805C126.221-17.4805 134.326-25.5371 134.326-35.2539C134.326-44.9707 126.221-53.0762 116.504-53.0762C106.787-53.0762 98.6816-44.9707 98.6816-35.2539C98.6816-25.5371 106.787-17.4805 116.504-17.4805ZM50.9277 21.7285C60.6445 21.7285 68.75 13.623 68.75 3.90625C68.75-5.81055 60.6445-13.916 50.9277-13.916C41.2109-13.916 33.1543-5.81055 33.1543 3.90625C33.1543 13.5254 41.1621 21.7285 50.9277 21.7285ZM94.6777 21.7285C104.395 21.7285 112.451 13.623 112.451 3.90625C112.451-5.81055 104.395-13.916 94.6777-13.916C84.9609-13.916 76.8555-5.81055 76.8555 3.90625C76.8555 13.623 84.9609 21.7285 94.6777 21.7285Z"/>
  </g>
  <g id="Ultralight-L" transform="matrix(1 0 0 1 487.69 1556)">
   <path d="M50.4395-56.3477C60.0098-56.3477 68.0176-64.3555 68.0176-73.9746C68.0176-83.5449 60.0098-91.5527 50.4395-91.5527C40.8691-91.5527 32.8613-83.5449 32.8613-73.9746C32.8613-64.4531 40.7715-56.3477 50.4395-56.3477ZM93.6035-56.3477C103.174-56.3477 111.182-64.3555 111.182-73.9746C111.182-83.5449 103.174-91.5527 93.6035-91.5527C84.0332-91.5527 76.0254-83.5449 76.0254-73.9746C76.0254-64.3555 84.0332-56.3477 93.6035-56.3477ZM72.0215-17.6758C81.5918-17.6758 89.5996-25.6836 89.5996-35.2539C89.5996-44.873 81.5918-52.832 72.0215-52.832C62.4512-52.832 54.4434-44.873 54.4434-35.2539C54.4434-25.6836 62.4512-17.6758 72.0215-17.6758ZM28.8574-17.6758C38.4766-17.6758 46.4355-25.6836 46.4355-35.2539C46.4355-44.873 38.4766-52.832 28.8574-52.832C19.2871-52.832 11.2793-44.873 11.2793-35.2539C11.2793-25.7812 19.1895-17.6758 28.8574-17.6758ZM115.186-17.6758C124.756-17.6758 132.764-25.6836 132.764-35.2539C132.764-44.873 124.756-52.832 115.186-52.832C105.615-52.832 97.6074-44.873 97.6074-35.2539C97.6074-25.6836 105.615-17.6758 115.186-17.6758ZM50.4395 20.9961C60.0098 20.9961 68.0176 12.9883 68.0176 3.41797C68.0176-6.20117 60.0098-14.1602 50.4395-14.1602C40.8691-14.1602 32.8613-6.20117 32.8613 3.41797C32.8613 12.9395 40.7715 20.9961 50.4395 20.9961ZM93.6035 20.9961C103.174 20.9961 111.182 12.9883 111.182 3.41797C111.182-6.20117 103.174-14.1602 93.6035-14.1602C84.0332-14.1602 76.0254-6.20117 76.0254 3.41797C76.0254 12.9883 84.0332 20.9961 93.6035 20.9961Z"/>
  </g>
  <g id="Black-M" transform="matrix(1 0 0 1 2866.85 1126)">
   <path d="M45.9961-55.3223C55.127-55.3223 62.7441-62.8906 62.7441-72.0215C62.7441-81.1523 55.127-88.8184 45.9961-88.8184C36.8652-88.8184 29.2969-81.1523 29.2969-72.0215C29.2969-63.0859 36.8164-55.3223 45.9961-55.3223ZM87.1094-55.3223C96.2402-55.3223 103.809-62.8906 103.809-72.0215C103.809-81.1523 96.2402-88.8184 87.1094-88.8184C77.9785-88.8184 70.3613-81.1523 70.3613-72.0215C70.3613-62.8906 77.9785-55.3223 87.1094-55.3223ZM66.5527-18.5547C75.6836-18.5547 83.252-26.123 83.252-35.2539C83.252-44.3848 75.6836-51.9531 66.5527-51.9531C57.4219-51.9531 49.8535-44.3848 49.8535-35.2539C49.8535-26.123 57.4219-18.5547 66.5527-18.5547ZM25.4883-18.5547C34.6191-18.5547 42.2363-26.123 42.2363-35.2539C42.2363-44.3848 34.6191-51.9531 25.4883-51.9531C16.3574-51.9531 8.74023-44.3848 8.74023-35.2539C8.74023-26.2207 16.2598-18.5547 25.4883-18.5547ZM107.617-18.5547C116.748-18.5547 124.365-26.123 124.365-35.2539C124.365-44.3848 116.748-51.9531 107.617-51.9531C98.4863-51.9531 90.8691-44.3848 90.8691-35.2539C90.8691-26.123 98.4863-18.5547 107.617-18.5547ZM45.9961 18.3105C55.127 18.3105 62.7441 10.5957 62.7441 1.46484C62.7441-7.61719 55.127-15.1855 45.9961-15.1855C36.8652-15.1855 29.2969-7.61719 29.2969 1.46484C29.2969 10.5469 36.8164 18.3105 45.9961 18.3105ZM87.1094 18.3105C96.2402 18.3105 103.809 10.5957 103.809 1.46484C103.809-7.61719 96.2402-15.1855 87.1094-15.1855C77.9785-15.1855 70.3613-7.61719 70.3613 1.46484C70.3613 10.5957 77.9785 18.3105 87.1094 18.3105Z"/>
  </g>
  <g id="Heavy-M" transform="matrix(1 0 0 1 2571.89 1126)">
   <path d="M44.873-54.7363C53.7109-54.7363 61.084-62.0605 61.084-70.8984C61.084-79.7363 53.7109-87.207 44.873-87.207C36.0352-87.207 28.6621-79.7363 28.6621-70.8984C28.6621-62.207 35.9375-54.7363 44.873-54.7363ZM84.7168-54.7363C93.6035-54.7363 100.928-62.0605 100.928-70.8984C100.928-79.7363 93.6035-87.207 84.7168-87.207C75.8789-87.207 68.5059-79.7363 68.5059-70.8984C68.5059-62.0605 75.8789-54.7363 84.7168-54.7363ZM64.7949-19.0918C73.6328-19.0918 81.0059-26.416 81.0059-35.2539C81.0059-44.0918 73.6328-51.4648 64.7949-51.4648C55.957-51.4648 48.584-44.0918 48.584-35.2539C48.584-26.416 55.957-19.0918 64.7949-19.0918ZM25-19.0918C33.8379-19.0918 41.2109-26.416 41.2109-35.2539C41.2109-44.0918 33.8379-51.4648 25-51.4648C16.1133-51.4648 8.74023-44.0918 8.74023-35.2539C8.74023-26.4648 16.0156-19.0918 25-19.0918ZM104.639-19.0918C113.477-19.0918 120.85-26.416 120.85-35.2539C120.85-44.0918 113.477-51.4648 104.639-51.4648C95.752-51.4648 88.3789-44.0918 88.3789-35.2539C88.3789-26.416 95.752-19.0918 104.639-19.0918ZM44.873 16.6504C53.7109 16.6504 61.084 9.22852 61.084 0.390625C61.084-8.44727 53.7109-15.8203 44.873-15.8203C36.0352-15.8203 28.6621-8.44727 28.6621 0.390625C28.6621 9.17969 35.9375 16.6504 44.873 16.6504ZM84.7168 16.6504C93.6035 16.6504 100.928 9.22852 100.928 0.390625C100.928-8.44727 93.6035-15.8203 84.7168-15.8203C75.8789-15.8203 68.5059-8.44727 68.5059 0.390625C68.5059 9.22852 75.8789 16.6504 84.7168 16.6504Z"/>
  </g>
  <g id="Bold-M" transform="matrix(1 0 0 1 2277.14 1126)">
   <path d="M43.6035-54.0527C52.1484-54.0527 59.2773-61.1328 59.2773-69.6777C59.2773-78.2227 52.1484-85.3516 43.6035-85.3516C35.0586-85.3516 27.9785-78.2227 27.9785-69.6777C27.9785-61.2793 35.0098-54.0527 43.6035-54.0527ZM82.0801-54.0527C90.625-54.0527 97.7051-61.1328 97.7051-69.6777C97.7051-78.2227 90.625-85.3516 82.0801-85.3516C73.5352-85.3516 66.4062-78.2227 66.4062-69.6777C66.4062-61.1328 73.5352-54.0527 82.0801-54.0527ZM62.8418-19.6289C71.3867-19.6289 78.4668-26.709 78.4668-35.2539C78.4668-43.7988 71.3867-50.8789 62.8418-50.8789C54.2969-50.8789 47.2168-43.7988 47.2168-35.2539C47.2168-26.709 54.2969-19.6289 62.8418-19.6289ZM24.4141-19.6289C32.959-19.6289 40.0879-26.709 40.0879-35.2539C40.0879-43.7988 32.959-50.8789 24.4141-50.8789C15.8691-50.8789 8.74023-43.7988 8.74023-35.2539C8.74023-26.7578 15.7715-19.6289 24.4141-19.6289ZM101.27-19.6289C109.814-19.6289 116.943-26.709 116.943-35.2539C116.943-43.7988 109.814-50.8789 101.27-50.8789C92.7246-50.8789 85.5957-43.7988 85.5957-35.2539C85.5957-26.709 92.7246-19.6289 101.27-19.6289ZM43.6035 14.8438C52.1484 14.8438 59.2773 7.71484 59.2773-0.830078C59.2773-9.375 52.1484-16.4551 43.6035-16.4551C35.0586-16.4551 27.9785-9.375 27.9785-0.830078C27.9785 7.61719 35.0098 14.8438 43.6035 14.8438ZM82.0801 14.8438C90.625 14.8438 97.7051 7.71484 97.7051-0.830078C97.7051-9.375 90.625-16.4551 82.0801-16.4551C73.5352-16.4551 66.4062-9.375 66.4062-0.830078C66.4062 7.71484 73.5352 14.8438 82.0801 14.8438Z"/>
  </g>
  <g id="Semibold-M" transform="matrix(1 0 0 1 1981.77 1126)">
   <path d="M42.7246-53.6133C51.0742-53.6133 58.0078-60.498 58.0078-68.7988C58.0078-77.1484 51.0742-84.1309 42.7246-84.1309C34.4238-84.1309 27.4902-77.1484 27.4902-68.7988C27.4902-60.5957 34.3262-53.6133 42.7246-53.6133ZM80.2246-53.6133C88.5742-53.6133 95.5078-60.498 95.5078-68.7988C95.5078-77.1484 88.5742-84.1309 80.2246-84.1309C71.9238-84.1309 64.9414-77.1484 64.9414-68.7988C64.9414-60.498 71.9238-53.6133 80.2246-53.6133ZM61.4746-20.0195C69.8242-20.0195 76.7578-26.9043 76.7578-35.2539C76.7578-43.6035 69.8242-50.5371 61.4746-50.5371C53.1738-50.5371 46.2402-43.6035 46.2402-35.2539C46.2402-26.9043 53.1738-20.0195 61.4746-20.0195ZM24.0234-20.0195C32.373-20.0195 39.3066-26.9043 39.3066-35.2539C39.3066-43.6035 32.373-50.5371 24.0234-50.5371C15.6738-50.5371 8.74023-43.6035 8.74023-35.2539C8.74023-27.002 15.5762-20.0195 24.0234-20.0195ZM98.9746-20.0195C107.275-20.0195 114.258-26.9043 114.258-35.2539C114.258-43.6035 107.275-50.5371 98.9746-50.5371C90.625-50.5371 83.6914-43.6035 83.6914-35.2539C83.6914-26.9043 90.625-20.0195 98.9746-20.0195ZM42.7246 13.5742C51.0742 13.5742 58.0078 6.64062 58.0078-1.70898C58.0078-10.0098 51.0742-16.9434 42.7246-16.9434C34.4238-16.9434 27.4902-10.0098 27.4902-1.70898C27.4902 6.54297 34.3262 13.5742 42.7246 13.5742ZM80.2246 13.5742C88.5742 13.5742 95.5078 6.64062 95.5078-1.70898C95.5078-10.0098 88.5742-16.9434 80.2246-16.9434C71.9238-16.9434 64.9414-10.0098 64.9414-1.70898C64.9414 6.64062 71.9238 13.5742 80.2246 13.5742Z"/>
  </g>
  <g id="Medium-M" transform="matrix(1 0 0 1 1686.08 1126)">
   <path d="M42.0898-53.2227C50.2441-53.2227 57.0801-60.0586 57.0801-68.1641C57.0801-76.3672 50.2441-83.1543 42.0898-83.1543C33.9355-83.1543 27.0996-76.3672 27.0996-68.1641C27.0996-60.1074 33.8379-53.2227 42.0898-53.2227ZM78.8574-53.2227C87.0117-53.2227 93.7988-60.0586 93.7988-68.1641C93.7988-76.3672 87.0117-83.1543 78.8574-83.1543C70.6543-83.1543 63.8672-76.3672 63.8672-68.1641C63.8672-60.0586 70.6543-53.2227 78.8574-53.2227ZM60.4492-20.3125C68.6523-20.3125 75.4395-27.0996 75.4395-35.2539C75.4395-43.457 68.6523-50.2441 60.4492-50.2441C52.2949-50.2441 45.5078-43.457 45.5078-35.2539C45.5078-27.0996 52.2949-20.3125 60.4492-20.3125ZM23.7305-20.3125C31.8848-20.3125 38.7207-27.0996 38.7207-35.2539C38.7207-43.457 31.8848-50.2441 23.7305-50.2441C15.5273-50.2441 8.74023-43.457 8.74023-35.2539C8.74023-27.1484 15.4785-20.3125 23.7305-20.3125ZM97.2168-20.3125C105.371-20.3125 112.207-27.0996 112.207-35.2539C112.207-43.457 105.371-50.2441 97.2168-50.2441C89.0625-50.2441 82.2266-43.457 82.2266-35.2539C82.2266-27.0996 89.0625-20.3125 97.2168-20.3125ZM42.0898 12.6465C50.2441 12.6465 57.0801 5.81055 57.0801-2.34375C57.0801-10.498 50.2441-17.2852 42.0898-17.2852C33.9355-17.2852 27.0996-10.498 27.0996-2.34375C27.0996 5.76172 33.8379 12.6465 42.0898 12.6465ZM78.8574 12.6465C87.0117 12.6465 93.7988 5.81055 93.7988-2.34375C93.7988-10.498 87.0117-17.2852 78.8574-17.2852C70.6543-17.2852 63.8672-10.498 63.8672-2.34375C63.8672 5.81055 70.6543 12.6465 78.8574 12.6465Z"/>
  </g>
  <g id="Regular-M" transform="matrix(1 0 0 1 1390.71 1126)">
   <path d="M41.2109-52.7832C49.2188-52.7832 55.8105-59.4238 55.8105-67.334C55.8105-75.293 49.2188-81.9336 41.2109-81.9336C33.252-81.9336 26.6602-75.293 26.6602-67.334C26.6602-59.4727 33.2031-52.7832 41.2109-52.7832ZM77.0508-52.7832C85.0098-52.7832 91.6016-59.4238 91.6016-67.334C91.6016-75.293 85.0098-81.9336 77.0508-81.9336C69.043-81.9336 62.4512-75.293 62.4512-67.334C62.4512-59.4238 69.043-52.7832 77.0508-52.7832ZM59.1309-20.6543C67.0898-20.6543 73.7305-27.2949 73.7305-35.2539C73.7305-43.2129 67.0898-49.8535 59.1309-49.8535C51.1719-49.8535 44.5312-43.2129 44.5312-35.2539C44.5312-27.2949 51.1719-20.6543 59.1309-20.6543ZM23.3398-20.6543C31.2988-20.6543 37.9395-27.2949 37.9395-35.2539C37.9395-43.2129 31.2988-49.8535 23.3398-49.8535C15.3809-49.8535 8.74023-43.2129 8.74023-35.2539C8.74023-27.3438 15.2832-20.6543 23.3398-20.6543ZM94.9219-20.6543C102.881-20.6543 109.521-27.2949 109.521-35.2539C109.521-43.2129 102.881-49.8535 94.9219-49.8535C86.9629-49.8535 80.3223-43.2129 80.3223-35.2539C80.3223-27.2949 86.9629-20.6543 94.9219-20.6543ZM41.2109 11.377C49.2188 11.377 55.8105 4.78516 55.8105-3.17383C55.8105-11.1328 49.2188-17.7246 41.2109-17.7246C33.252-17.7246 26.6602-11.1328 26.6602-3.17383C26.6602 4.73633 33.2031 11.377 41.2109 11.377ZM77.0508 11.377C85.0098 11.377 91.6016 4.78516 91.6016-3.17383C91.6016-11.1328 85.0098-17.7246 77.0508-17.7246C69.043-17.7246 62.4512-11.1328 62.4512-3.17383C62.4512 4.78516 69.043 11.377 77.0508 11.377Z"/>
  </g>
  <g id="Light-M" transform="matrix(1 0 0 1 1095.03 1126)">
   <path d="M40.5762-52.4414C48.3887-52.4414 54.8828-58.9355 54.8828-66.6992C54.8828-74.4629 48.3887-80.957 40.5762-80.957C32.7637-80.957 26.2695-74.4629 26.2695-66.6992C26.2695-58.9844 32.7148-52.4414 40.5762-52.4414ZM75.6348-52.4414C83.4473-52.4414 89.9414-58.9355 89.9414-66.6992C89.9414-74.4629 83.4473-80.957 75.6348-80.957C67.8223-80.957 61.3281-74.4629 61.3281-66.6992C61.3281-58.9355 67.8223-52.4414 75.6348-52.4414ZM58.1055-20.9473C65.918-20.9473 72.4121-27.4414 72.4121-35.2539C72.4121-43.0664 65.918-49.5605 58.1055-49.5605C50.293-49.5605 43.7988-43.0664 43.7988-35.2539C43.7988-27.4414 50.293-20.9473 58.1055-20.9473ZM23.0469-20.9473C30.8105-20.9473 37.3047-27.4414 37.3047-35.2539C37.3047-43.0664 30.8105-49.5605 23.0469-49.5605C15.2344-49.5605 8.74023-43.0664 8.74023-35.2539C8.74023-27.5391 15.1855-20.9473 23.0469-20.9473ZM93.1641-20.9473C100.977-20.9473 107.471-27.4414 107.471-35.2539C107.471-43.0664 100.977-49.5605 93.1641-49.5605C85.4004-49.5605 78.9062-43.0664 78.9062-35.2539C78.9062-27.4414 85.4004-20.9473 93.1641-20.9473ZM40.5762 10.4492C48.3887 10.4492 54.8828 3.95508 54.8828-3.85742C54.8828-11.6211 48.3887-18.1152 40.5762-18.1152C32.7637-18.1152 26.2695-11.6211 26.2695-3.85742C26.2695 3.90625 32.7148 10.4492 40.5762 10.4492ZM75.6348 10.4492C83.4473 10.4492 89.9414 3.95508 89.9414-3.85742C89.9414-11.6211 83.4473-18.1152 75.6348-18.1152C67.8223-18.1152 61.3281-11.6211 61.3281-3.85742C61.3281 3.95508 67.8223 10.4492 75.6348 10.4492Z"/>
  </g>
  <g id="Thin-M" transform="matrix(1 0 0 1 799.684 1126)">
   <path d="M39.6973-51.9531C47.2656-51.9531 53.5645-58.252 53.5645-65.8203C53.5645-73.3887 47.2656-79.7363 39.6973-79.7363C32.1289-79.7363 25.7812-73.3887 25.7812-65.8203C25.7812-58.3008 32.0312-51.9531 39.6973-51.9531ZM73.7793-51.9531C81.3965-51.9531 87.6953-58.252 87.6953-65.8203C87.6953-73.3887 81.3965-79.7363 73.7793-79.7363C66.2109-79.7363 59.9121-73.3887 59.9121-65.8203C59.9121-58.252 66.2109-51.9531 73.7793-51.9531ZM56.7383-21.3867C64.3066-21.3867 70.6543-27.6855 70.6543-35.2539C70.6543-42.8223 64.3066-49.1699 56.7383-49.1699C49.1699-49.1699 42.8711-42.8223 42.8711-35.2539C42.8711-27.6855 49.1699-21.3867 56.7383-21.3867ZM22.6562-21.3867C30.2246-21.3867 36.5234-27.6855 36.5234-35.2539C36.5234-42.8223 30.2246-49.1699 22.6562-49.1699C15.0391-49.1699 8.74023-42.8223 8.74023-35.2539C8.74023-27.7344 14.9902-21.3867 22.6562-21.3867ZM90.8691-21.3867C98.4375-21.3867 104.736-27.6855 104.736-35.2539C104.736-42.8223 98.4375-49.1699 90.8691-49.1699C83.252-49.1699 76.9531-42.8223 76.9531-35.2539C76.9531-27.6855 83.252-21.3867 90.8691-21.3867ZM39.6973 9.17969C47.2656 9.17969 53.5645 2.88086 53.5645-4.6875C53.5645-12.2559 47.2656-18.6035 39.6973-18.6035C32.1289-18.6035 25.7812-12.2559 25.7812-4.6875C25.7812 2.83203 32.0312 9.17969 39.6973 9.17969ZM73.7793 9.17969C81.3965 9.17969 87.6953 2.88086 87.6953-4.6875C87.6953-12.2559 81.3965-18.6035 73.7793-18.6035C66.2109-18.6035 59.9121-12.2559 59.9121-4.6875C59.9121 2.88086 66.2109 9.17969 73.7793 9.17969Z"/>
  </g>
  <g id="Ultralight-M" transform="matrix(1 0 0 1 503.656 1126)">
   <path d="M39.2578-51.709C46.7285-51.709 52.9297-57.9102 52.9297-65.3809C52.9297-72.8516 46.7285-79.1016 39.2578-79.1016C31.7871-79.1016 25.5371-72.8516 25.5371-65.3809C25.5371-57.959 31.6895-51.709 39.2578-51.709ZM72.8516-51.709C80.3223-51.709 86.5723-57.9102 86.5723-65.3809C86.5723-72.8516 80.3223-79.1016 72.8516-79.1016C65.3809-79.1016 59.1797-72.8516 59.1797-65.3809C59.1797-57.9102 65.3809-51.709 72.8516-51.709ZM56.0547-21.582C63.5254-21.582 69.7266-27.7832 69.7266-35.2539C69.7266-42.7246 63.5254-48.9746 56.0547-48.9746C48.584-48.9746 42.334-42.7246 42.334-35.2539C42.334-27.7832 48.584-21.582 56.0547-21.582ZM22.4121-21.582C29.8828-21.582 36.1328-27.7832 36.1328-35.2539C36.1328-42.7246 29.8828-48.9746 22.4121-48.9746C14.9414-48.9746 8.74023-42.7246 8.74023-35.2539C8.74023-27.832 14.8926-21.582 22.4121-21.582ZM89.6484-21.582C97.1191-21.582 103.369-27.7832 103.369-35.2539C103.369-42.7246 97.1191-48.9746 89.6484-48.9746C82.1777-48.9746 75.9766-42.7246 75.9766-35.2539C75.9766-27.7832 82.1777-21.582 89.6484-21.582ZM39.2578 8.54492C46.7285 8.54492 52.9297 2.34375 52.9297-5.12695C52.9297-12.5977 46.7285-18.8477 39.2578-18.8477C31.7871-18.8477 25.5371-12.5977 25.5371-5.12695C25.5371 2.29492 31.6895 8.54492 39.2578 8.54492ZM72.8516 8.54492C80.3223 8.54492 86.5723 2.34375 86.5723-5.12695C86.5723-12.5977 80.3223-18.8477 72.8516-18.8477C65.3809-18.8477 59.1797-12.5977 59.1797-5.12695C59.1797 2.34375 65.3809 8.54492 72.8516 8.54492Z"/>
  </g>
  <g id="Black-S" transform="matrix(1 0 0 1 2881.4 696)">
   <path d="M35.9375-50.9277C43.0664-50.9277 49.0234-56.8359 49.0234-63.9648C49.0234-71.0938 43.0664-77.0996 35.9375-77.0996C28.8086-77.0996 22.9004-71.0938 22.9004-63.9648C22.9004-56.9824 28.7598-50.9277 35.9375-50.9277ZM68.0664-50.9277C75.1953-50.9277 81.1035-56.8359 81.1035-63.9648C81.1035-71.0938 75.1953-77.0996 68.0664-77.0996C60.9375-77.0996 54.9805-71.0938 54.9805-63.9648C54.9805-56.8359 60.9375-50.9277 68.0664-50.9277ZM52.002-22.2168C59.1309-22.2168 65.0391-28.125 65.0391-35.2539C65.0391-42.3828 59.1309-48.291 52.002-48.291C44.873-48.291 38.9648-42.3828 38.9648-35.2539C38.9648-28.125 44.873-22.2168 52.002-22.2168ZM19.9219-22.2168C27.0508-22.2168 33.0078-28.125 33.0078-35.2539C33.0078-42.3828 27.0508-48.291 19.9219-48.291C12.793-48.291 6.83594-42.3828 6.83594-35.2539C6.83594-28.1738 12.6953-22.2168 19.9219-22.2168ZM84.082-22.2168C91.2109-22.2168 97.168-28.125 97.168-35.2539C97.168-42.3828 91.2109-48.291 84.082-48.291C76.9531-48.291 70.9961-42.3828 70.9961-35.2539C70.9961-28.125 76.9531-22.2168 84.082-22.2168ZM35.9375 6.5918C43.0664 6.5918 49.0234 0.585938 49.0234-6.54297C49.0234-13.6719 43.0664-19.5801 35.9375-19.5801C28.8086-19.5801 22.9004-13.6719 22.9004-6.54297C22.9004 0.537109 28.7598 6.5918 35.9375 6.5918ZM68.0664 6.5918C75.1953 6.5918 81.1035 0.585938 81.1035-6.54297C81.1035-13.6719 75.1953-19.5801 68.0664-19.5801C60.9375-19.5801 54.9805-13.6719 54.9805-6.54297C54.9805 0.585938 60.9375 6.5918 68.0664 6.5918Z"/>
  </g>
  <g id="Heavy-S" transform="matrix(1 0 0 1 2585.91 696)">
   <path d="M35.1562-50.4883C42.0898-50.4883 47.9004-56.25 47.9004-63.1836C47.9004-70.1172 42.0898-75.9766 35.1562-75.9766C28.2227-75.9766 22.4609-70.1172 22.4609-63.1836C22.4609-56.3965 28.1738-50.4883 35.1562-50.4883ZM66.4062-50.4883C73.3398-50.4883 79.1016-56.25 79.1016-63.1836C79.1016-70.1172 73.3398-75.9766 66.4062-75.9766C59.4727-75.9766 53.6621-70.1172 53.6621-63.1836C53.6621-56.25 59.4727-50.4883 66.4062-50.4883ZM50.7812-22.5586C57.7148-22.5586 63.4766-28.3203 63.4766-35.2539C63.4766-42.1875 57.7148-47.9492 50.7812-47.9492C43.8477-47.9492 38.0859-42.1875 38.0859-35.2539C38.0859-28.3203 43.8477-22.5586 50.7812-22.5586ZM19.5801-22.5586C26.5137-22.5586 32.2754-28.3203 32.2754-35.2539C32.2754-42.1875 26.5137-47.9492 19.5801-47.9492C12.6465-47.9492 6.83594-42.1875 6.83594-35.2539C6.83594-28.3691 12.5488-22.5586 19.5801-22.5586ZM81.9824-22.5586C88.916-22.5586 94.7266-28.3203 94.7266-35.2539C94.7266-42.1875 88.916-47.9492 81.9824-47.9492C75.0488-47.9492 69.2383-42.1875 69.2383-35.2539C69.2383-28.3203 75.0488-22.5586 81.9824-22.5586ZM35.1562 5.46875C42.0898 5.46875 47.9004-0.390625 47.9004-7.32422C47.9004-14.2578 42.0898-20.0195 35.1562-20.0195C28.2227-20.0195 22.4609-14.2578 22.4609-7.32422C22.4609-0.439453 28.1738 5.46875 35.1562 5.46875ZM66.4062 5.46875C73.3398 5.46875 79.1016-0.390625 79.1016-7.32422C79.1016-14.2578 73.3398-20.0195 66.4062-20.0195C59.4727-20.0195 53.6621-14.2578 53.6621-7.32422C53.6621-0.390625 59.4727 5.46875 66.4062 5.46875Z"/>
  </g>
  <g id="Bold-S" transform="matrix(1 0 0 1 2290.56 696)">
   <path d="M34.2773-50.0488C41.0156-50.0488 46.582-55.6152 46.582-62.3047C46.582-69.043 41.0156-74.707 34.2773-74.707C27.5391-74.707 21.9727-69.043 21.9727-62.3047C21.9727-55.7129 27.4902-50.0488 34.2773-50.0488ZM64.5508-50.0488C71.2891-50.0488 76.8555-55.6152 76.8555-62.3047C76.8555-69.043 71.2891-74.707 64.5508-74.707C57.8125-74.707 52.1973-69.043 52.1973-62.3047C52.1973-55.6152 57.8125-50.0488 64.5508-50.0488ZM49.4141-22.9492C56.1523-22.9492 61.7188-28.5156 61.7188-35.2539C61.7188-41.9922 56.1523-47.5586 49.4141-47.5586C42.6758-47.5586 37.1094-41.9922 37.1094-35.2539C37.1094-28.5156 42.6758-22.9492 49.4141-22.9492ZM19.1895-22.9492C25.8789-22.9492 31.4941-28.5156 31.4941-35.2539C31.4941-41.9922 25.8789-47.5586 19.1895-47.5586C12.4512-47.5586 6.83594-41.9922 6.83594-35.2539C6.83594-28.5645 12.3535-22.9492 19.1895-22.9492ZM79.6387-22.9492C86.377-22.9492 91.9922-28.5156 91.9922-35.2539C91.9922-41.9922 86.377-47.5586 79.6387-47.5586C72.9004-47.5586 67.334-41.9922 67.334-35.2539C67.334-28.5156 72.9004-22.9492 79.6387-22.9492ZM34.2773 4.15039C41.0156 4.15039 46.582-1.46484 46.582-8.20312C46.582-14.8926 41.0156-20.459 34.2773-20.459C27.5391-20.459 21.9727-14.8926 21.9727-8.20312C21.9727-1.51367 27.4902 4.15039 34.2773 4.15039ZM64.5508 4.15039C71.2891 4.15039 76.8555-1.46484 76.8555-8.20312C76.8555-14.8926 71.2891-20.459 64.5508-20.459C57.8125-20.459 52.1973-14.8926 52.1973-8.20312C52.1973-1.46484 57.8125 4.15039 64.5508 4.15039Z"/>
  </g>
  <g id="Semibold-S" transform="matrix(1 0 0 1 1994.8 696)">
   <path d="M33.6914-49.707C40.2344-49.707 45.7031-55.1758 45.7031-61.7188C45.7031-68.3105 40.2344-73.7793 33.6914-73.7793C27.0996-73.7793 21.6309-68.3105 21.6309-61.7188C21.6309-55.2734 27.0508-49.707 33.6914-49.707ZM63.2812-49.707C69.8242-49.707 75.293-55.1758 75.293-61.7188C75.293-68.3105 69.8242-73.7793 63.2812-73.7793C56.6895-73.7793 51.2207-68.3105 51.2207-61.7188C51.2207-55.1758 56.6895-49.707 63.2812-49.707ZM48.4863-23.1934C55.0293-23.1934 60.498-28.6621 60.498-35.2539C60.498-41.8457 55.0293-47.3145 48.4863-47.3145C41.8945-47.3145 36.4258-41.8457 36.4258-35.2539C36.4258-28.6621 41.8945-23.1934 48.4863-23.1934ZM18.8965-23.1934C25.4883-23.1934 30.957-28.6621 30.957-35.2539C30.957-41.8457 25.4883-47.3145 18.8965-47.3145C12.3047-47.3145 6.83594-41.8457 6.83594-35.2539C6.83594-28.7109 12.2559-23.1934 18.8965-23.1934ZM78.0273-23.1934C84.6191-23.1934 90.0879-28.6621 90.0879-35.2539C90.0879-41.8457 84.6191-47.3145 78.0273-47.3145C71.4355-47.3145 65.9668-41.8457 65.9668-35.2539C65.9668-28.6621 71.4355-23.1934 78.0273-23.1934ZM33.6914 3.27148C40.2344 3.27148 45.7031-2.19727 45.7031-8.78906C45.7031-15.332 40.2344-20.8008 33.6914-20.8008C27.0996-20.8008 21.6309-15.332 21.6309-8.78906C21.6309-2.24609 27.0508 3.27148 33.6914 3.27148ZM63.2812 3.27148C69.8242 3.27148 75.293-2.19727 75.293-8.78906C75.293-15.332 69.8242-20.8008 63.2812-20.8008C56.6895-20.8008 51.2207-15.332 51.2207-8.78906C51.2207-2.19727 56.6895 3.27148 63.2812 3.27148Z"/>
  </g>
  <g id="Medium-S" transform="matrix(1 0 0 1 1698.8 696)">
   <path d="M33.2031-49.4629C39.6973-49.4629 45.0684-54.834 45.0684-61.2793C45.0684-67.7246 39.6973-73.1445 33.2031-73.1445C26.7578-73.1445 21.3867-67.7246 21.3867-61.2793C21.3867-54.9316 26.709-49.4629 33.2031-49.4629ZM62.3047-49.4629C68.75-49.4629 74.1211-54.834 74.1211-61.2793C74.1211-67.7246 68.75-73.1445 62.3047-73.1445C55.8105-73.1445 50.4395-67.7246 50.4395-61.2793C50.4395-54.834 55.8105-49.4629 62.3047-49.4629ZM47.7539-23.4375C54.1992-23.4375 59.5703-28.8086 59.5703-35.2539C59.5703-41.6992 54.1992-47.0703 47.7539-47.0703C41.2598-47.0703 35.8887-41.6992 35.8887-35.2539C35.8887-28.8086 41.2598-23.4375 47.7539-23.4375ZM18.7012-23.4375C25.1465-23.4375 30.5176-28.8086 30.5176-35.2539C30.5176-41.6992 25.1465-47.0703 18.7012-47.0703C12.207-47.0703 6.83594-41.6992 6.83594-35.2539C6.83594-28.8574 12.1582-23.4375 18.7012-23.4375ZM76.8066-23.4375C83.3008-23.4375 88.6719-28.8086 88.6719-35.2539C88.6719-41.6992 83.3008-47.0703 76.8066-47.0703C70.3613-47.0703 64.9414-41.6992 64.9414-35.2539C64.9414-28.8086 70.3613-23.4375 76.8066-23.4375ZM33.2031 2.63672C39.6973 2.63672 45.0684-2.7832 45.0684-9.22852C45.0684-15.6738 39.6973-21.0449 33.2031-21.0449C26.7578-21.0449 21.3867-15.6738 21.3867-9.22852C21.3867-2.83203 26.709 2.63672 33.2031 2.63672ZM62.3047 2.63672C68.75 2.63672 74.1211-2.7832 74.1211-9.22852C74.1211-15.6738 68.75-21.0449 62.3047-21.0449C55.8105-21.0449 50.4395-15.6738 50.4395-9.22852C50.4395-2.7832 55.8105 2.63672 62.3047 2.63672Z"/>
  </g>
  <g id="Regular-S" transform="matrix(1 0 0 1 1403.04 696)">
   <path d="M32.6172-49.1699C38.916-49.1699 44.1895-54.3945 44.1895-60.6934C44.1895-66.9922 38.916-72.2656 32.6172-72.2656C26.2695-72.2656 21.0449-66.9922 21.0449-60.6934C21.0449-54.4434 26.2207-49.1699 32.6172-49.1699ZM61.0352-49.1699C67.334-49.1699 72.6074-54.3945 72.6074-60.6934C72.6074-66.9922 67.334-72.2656 61.0352-72.2656C54.6875-72.2656 49.4629-66.9922 49.4629-60.6934C49.4629-54.3945 54.6875-49.1699 61.0352-49.1699ZM46.8262-23.6816C53.125-23.6816 58.3984-28.9551 58.3984-35.2539C58.3984-41.5527 53.125-46.8262 46.8262-46.8262C40.4785-46.8262 35.2539-41.5527 35.2539-35.2539C35.2539-28.9551 40.4785-23.6816 46.8262-23.6816ZM18.4082-23.6816C24.7559-23.6816 29.9805-28.9551 29.9805-35.2539C29.9805-41.5527 24.7559-46.8262 18.4082-46.8262C12.1094-46.8262 6.83594-41.5527 6.83594-35.2539C6.83594-29.0039 12.0605-23.6816 18.4082-23.6816ZM75.1953-23.6816C81.543-23.6816 86.7676-28.9551 86.7676-35.2539C86.7676-41.5527 81.543-46.8262 75.1953-46.8262C68.8965-46.8262 63.623-41.5527 63.623-35.2539C63.623-28.9551 68.8965-23.6816 75.1953-23.6816ZM32.6172 1.75781C38.916 1.75781 44.1895-3.51562 44.1895-9.81445C44.1895-16.1133 38.916-21.3379 32.6172-21.3379C26.2695-21.3379 21.0449-16.1133 21.0449-9.81445C21.0449-3.56445 26.2207 1.75781 32.6172 1.75781ZM61.0352 1.75781C67.334 1.75781 72.6074-3.51562 72.6074-9.81445C72.6074-16.1133 67.334-21.3379 61.0352-21.3379C54.6875-21.3379 49.4629-16.1133 49.4629-9.81445C49.4629-3.51562 54.6875 1.75781 61.0352 1.75781Z"/>
  </g>
  <g id="Light-S" transform="matrix(1 0 0 1 1107.23 696)">
   <path d="M32.0312-48.8281C38.1836-48.8281 43.3594-53.9551 43.3594-60.1074C43.3594-66.3086 38.1836-71.4355 32.0312-71.4355C25.8301-71.4355 20.7031-66.3086 20.7031-60.1074C20.7031-54.0039 25.7812-48.8281 32.0312-48.8281ZM59.7656-48.8281C65.9668-48.8281 71.0938-53.9551 71.0938-60.1074C71.0938-66.3086 65.9668-71.4355 59.7656-71.4355C53.6133-71.4355 48.4863-66.3086 48.4863-60.1074C48.4863-53.9551 53.6133-48.8281 59.7656-48.8281ZM45.8984-23.9258C52.0996-23.9258 57.2266-29.1016 57.2266-35.2539C57.2266-41.4062 52.0996-46.582 45.8984-46.582C39.7461-46.582 34.5703-41.4062 34.5703-35.2539C34.5703-29.1016 39.7461-23.9258 45.8984-23.9258ZM18.1641-23.9258C24.3164-23.9258 29.4434-29.1016 29.4434-35.2539C29.4434-41.4062 24.3164-46.582 18.1641-46.582C11.9629-46.582 6.83594-41.4062 6.83594-35.2539C6.83594-29.1504 11.9141-23.9258 18.1641-23.9258ZM73.6816-23.9258C79.834-23.9258 84.9609-29.1016 84.9609-35.2539C84.9609-41.4062 79.834-46.582 73.6816-46.582C67.4805-46.582 62.3535-41.4062 62.3535-35.2539C62.3535-29.1016 67.4805-23.9258 73.6816-23.9258ZM32.0312 0.927734C38.1836 0.927734 43.3594-4.19922 43.3594-10.4004C43.3594-16.5527 38.1836-21.6797 32.0312-21.6797C25.8301-21.6797 20.7031-16.5527 20.7031-10.4004C20.7031-4.24805 25.7812 0.927734 32.0312 0.927734ZM59.7656 0.927734C65.9668 0.927734 71.0938-4.19922 71.0938-10.4004C71.0938-16.5527 65.9668-21.6797 59.7656-21.6797C53.6133-21.6797 48.4863-16.5527 48.4863-10.4004C48.4863-4.19922 53.6133 0.927734 59.7656 0.927734Z"/>
  </g>
  <g id="Thin-S" transform="matrix(1 0 0 1 811.72 696)">
   <path d="M31.25-48.4375C37.2559-48.4375 42.2363-53.418 42.2363-59.375C42.2363-65.332 37.2559-70.3125 31.25-70.3125C25.293-70.3125 20.3125-65.332 20.3125-59.375C20.3125-53.4668 25.2441-48.4375 31.25-48.4375ZM58.1543-48.4375C64.1602-48.4375 69.1406-53.418 69.1406-59.375C69.1406-65.332 64.1602-70.3125 58.1543-70.3125C52.1973-70.3125 47.2168-65.332 47.2168-59.375C47.2168-53.418 52.1973-48.4375 58.1543-48.4375ZM44.7266-24.2676C50.6836-24.2676 55.6641-29.248 55.6641-35.2539C55.6641-41.2598 50.6836-46.2402 44.7266-46.2402C38.7207-46.2402 33.7402-41.2598 33.7402-35.2539C33.7402-29.248 38.7207-24.2676 44.7266-24.2676ZM17.8223-24.2676C23.7793-24.2676 28.7598-29.248 28.7598-35.2539C28.7598-41.2598 23.7793-46.2402 17.8223-46.2402C11.8164-46.2402 6.83594-41.2598 6.83594-35.2539C6.83594-29.2969 11.7676-24.2676 17.8223-24.2676ZM71.6309-24.2676C77.5879-24.2676 82.5684-29.248 82.5684-35.2539C82.5684-41.2598 77.5879-46.2402 71.6309-46.2402C65.625-46.2402 60.6445-41.2598 60.6445-35.2539C60.6445-29.248 65.625-24.2676 71.6309-24.2676ZM31.25-0.195312C37.2559-0.195312 42.2363-5.17578 42.2363-11.1328C42.2363-17.0898 37.2559-22.0703 31.25-22.0703C25.293-22.0703 20.3125-17.0898 20.3125-11.1328C20.3125-5.22461 25.2441-0.195312 31.25-0.195312ZM58.1543-0.195312C64.1602-0.195312 69.1406-5.17578 69.1406-11.1328C69.1406-17.0898 64.1602-22.0703 58.1543-22.0703C52.1973-22.0703 47.2168-17.0898 47.2168-11.1328C47.2168-5.17578 52.1973-0.195312 58.1543-0.195312Z"/>
  </g>
  <g id="Ultralight-S" transform="matrix(1 0 0 1 515.619 696)">
   <path d="M30.8594-48.1934C36.7188-48.1934 41.6504-53.0762 41.6504-58.9844C41.6504-64.8438 36.7188-69.7754 30.8594-69.7754C24.9512-69.7754 20.0684-64.8438 20.0684-58.9844C20.0684-53.125 24.9023-48.1934 30.8594-48.1934ZM57.3242-48.1934C63.1836-48.1934 68.1152-53.0762 68.1152-58.9844C68.1152-64.8438 63.1836-69.7754 57.3242-69.7754C51.416-69.7754 46.5332-64.8438 46.5332-58.9844C46.5332-53.0762 51.416-48.1934 57.3242-48.1934ZM44.0918-24.4629C49.9512-24.4629 54.8828-29.3945 54.8828-35.2539C54.8828-41.1133 49.9512-46.0449 44.0918-46.0449C38.1836-46.0449 33.3008-41.1133 33.3008-35.2539C33.3008-29.3945 38.1836-24.4629 44.0918-24.4629ZM17.627-24.4629C23.4863-24.4629 28.418-29.3945 28.418-35.2539C28.418-41.1133 23.4863-46.0449 17.627-46.0449C11.7188-46.0449 6.83594-41.1133 6.83594-35.2539C6.83594-29.4434 11.6699-24.4629 17.627-24.4629ZM70.5566-24.4629C76.416-24.4629 81.3477-29.3945 81.3477-35.2539C81.3477-41.1133 76.416-46.0449 70.5566-46.0449C64.6484-46.0449 59.7656-41.1133 59.7656-35.2539C59.7656-29.3945 64.6484-24.4629 70.5566-24.4629ZM30.8594-0.732422C36.7188-0.732422 41.6504-5.66406 41.6504-11.5234C41.6504-17.4316 36.7188-22.3145 30.8594-22.3145C24.9512-22.3145 20.0684-17.4316 20.0684-11.5234C20.0684-5.71289 24.9023-0.732422 30.8594-0.732422ZM57.3242-0.732422C63.1836-0.732422 68.1152-5.66406 68.1152-11.5234C68.1152-17.4316 63.1836-22.3145 57.3242-22.3145C51.416-22.3145 46.5332-17.4316 46.5332-11.5234C46.5332-5.66406 51.416-0.732422 57.3242-0.732422Z"/>
  </g>
 </g>
</svg>
