<svg width="480" height="118" viewBox="0 0 480 118" fill="none" xmlns="http://www.w3.org/2000/svg">
<path d="M119.171 93.721L125.546 80.196H123.296L118.246 91.071L112.221 80.196H109.896L117.121 93.046L116.821 93.696C115.746 95.746 114.571 95.996 113.296 95.996C112.596 95.996 111.871 95.846 111.296 95.671V97.646C112.046 97.871 112.896 97.996 113.671 97.996C115.596 97.996 117.546 97.146 119.171 93.721Z" fill="#27323D"/>
<path d="M127.85 97.696V88.646L131.75 94.571H133.25L137.15 88.646V97.696H139.05V85.696H136.875L132.5 92.346L128.125 85.696H125.95V97.696H127.85Z" fill="#27323D"/>
<path d="M144.747 97.696V92.621H151.697V97.696H153.697V85.696H151.697V90.771H144.747V85.696H142.747V97.696H144.747Z" fill="#27323D"/>
<path d="M163.095 97.696C166.02 97.696 167.745 96.021 167.745 93.796C167.745 91.571 166.02 89.896 163.095 89.896H159.395V85.696H157.395V97.696H163.095ZM159.395 91.696H162.845C164.595 91.696 165.72 92.371 165.72 93.796C165.72 95.221 164.595 95.896 162.845 95.896H159.395V91.696ZM172.07 97.696V85.696H170.07V97.696H172.07Z" fill="#27323D"/>
<path d="M174.954 91.696C174.954 95.971 178.054 97.996 181.604 97.996C183.179 97.996 184.754 97.696 185.854 97.121V95.171C184.829 95.746 183.379 96.146 181.904 96.146C179.479 96.146 177.204 95.096 176.954 92.571H186.504C187.254 89.171 185.554 85.396 180.929 85.396C178.079 85.396 174.954 87.496 174.954 91.696ZM184.729 90.821H176.954C177.104 88.471 179.004 87.246 181.054 87.246C184.104 87.246 184.904 89.546 184.729 90.821Z" fill="#27323D"/>
<path d="M200.652 97.696V87.546H205.052V85.696H194.227V87.546H198.652V97.696H200.652Z" fill="#27323D"/>
<path d="M206.106 91.696C206.106 95.971 209.206 97.996 212.756 97.996C214.331 97.996 215.906 97.696 217.006 97.121V95.171C215.981 95.746 214.531 96.146 213.056 96.146C210.631 96.146 208.356 95.096 208.106 92.571H217.656C218.406 89.171 216.706 85.396 212.081 85.396C209.231 85.396 206.106 87.496 206.106 91.696ZM215.881 90.821H208.106C208.256 88.471 210.156 87.246 212.206 87.246C215.256 87.246 216.056 89.546 215.881 90.821Z" fill="#27323D"/>
<path d="M227.884 85.696L224.634 90.121L221.359 85.696H219.059L223.484 91.521L218.809 97.696H221.109L224.634 92.946L228.134 97.696H230.434L225.784 91.521L230.184 85.696H227.884Z" fill="#27323D"/>
<path d="M234.591 97.696V92.621H241.541V97.696H243.541V85.696H241.541V90.771H234.591V85.696H232.591V97.696H234.591Z" fill="#27323D"/>
<path d="M246.414 91.696C246.414 95.796 249.564 97.996 252.814 97.996C256.089 97.996 259.214 95.796 259.214 91.696C259.214 87.596 256.089 85.396 252.814 85.396C249.564 85.396 246.414 87.596 246.414 91.696ZM257.214 91.696C257.214 94.471 255.264 96.096 252.814 96.096C250.364 96.096 248.414 94.471 248.414 91.696C248.414 88.921 250.364 87.296 252.814 87.296C255.264 87.296 257.214 88.921 257.214 91.696Z" fill="#27323D"/>
<path d="M266.015 87.546H270.89V97.696H272.89V85.696H264.065C263.84 92.146 263.14 96.196 261.015 96.196C260.765 96.196 260.49 96.146 260.215 96.046V97.621C260.74 97.821 261.215 97.896 261.665 97.896C264.765 97.896 265.615 93.696 266.015 87.546Z" fill="#27323D"/>
<path d="M275.76 91.696C275.76 95.796 278.91 97.996 282.16 97.996C285.435 97.996 288.56 95.796 288.56 91.696C288.56 87.596 285.435 85.396 282.16 85.396C278.91 85.396 275.76 87.596 275.76 91.696ZM286.56 91.696C286.56 94.471 284.61 96.096 282.16 96.096C279.71 96.096 277.76 94.471 277.76 91.696C277.76 88.921 279.71 87.296 282.16 87.296C284.61 87.296 286.56 88.921 286.56 91.696Z" fill="#27323D"/>
<path d="M293.429 97.696V87.546H300.204V85.696H291.429V97.696H293.429Z" fill="#27323D"/>
<path d="M304.188 97.696L311.538 88.921V97.696H313.538V85.696H311.838L304.488 94.471V85.696H302.488V97.696H304.188Z" fill="#27323D"/>
<path d="M318.934 97.696L326.284 88.921V97.696H328.284V85.696H326.584L319.234 94.471V85.696H317.234V97.696H318.934Z" fill="#27323D"/>
<path d="M337.381 91.696C337.381 95.796 340.531 97.996 343.781 97.996C347.056 97.996 350.181 95.796 350.181 91.696C350.181 87.596 347.056 85.396 343.781 85.396C340.531 85.396 337.381 87.596 337.381 91.696ZM348.181 91.696C348.181 94.471 346.231 96.096 343.781 96.096C341.331 96.096 339.381 94.471 339.381 91.696C339.381 88.921 341.331 87.296 343.781 87.296C346.231 87.296 348.181 88.921 348.181 91.696Z" fill="#27323D"/>
<path d="M352.225 91.746C352.225 96.021 355.5 97.996 358.65 97.996C360.15 97.996 361.425 97.721 362.55 97.171V95.171C361.55 95.771 360.225 96.146 358.925 96.146C356.575 96.146 354.225 94.771 354.225 91.696C354.225 88.546 356.65 87.246 358.975 87.246C360.25 87.246 361.525 87.621 362.425 88.321V86.371C361.4 85.696 360.075 85.396 358.725 85.396C355.6 85.396 352.225 87.371 352.225 91.746Z" fill="#27323D"/>
<path d="M372.251 97.696C374.851 97.696 376.126 96.346 376.126 94.371C376.126 92.871 375.126 91.921 374.151 91.596C375.051 91.196 375.751 90.196 375.751 88.946C375.751 86.821 374.151 85.696 372.051 85.696H365.476V97.696H372.251ZM367.476 92.496H372.051C373.051 92.496 374.126 92.821 374.126 94.246C374.126 95.571 373.226 95.946 371.976 95.946H367.476V92.496ZM367.476 87.446H371.851C372.701 87.446 373.726 87.796 373.726 89.146C373.726 90.371 372.901 90.771 371.851 90.771H367.476V87.446Z" fill="#27323D"/>
<path d="M378.348 91.696C378.348 95.971 381.448 97.996 384.998 97.996C386.573 97.996 388.148 97.696 389.248 97.121V95.171C388.223 95.746 386.773 96.146 385.298 96.146C382.873 96.146 380.598 95.096 380.348 92.571H389.898C390.648 89.171 388.948 85.396 384.323 85.396C381.473 85.396 378.348 87.496 378.348 91.696ZM388.123 90.821H380.348C380.498 88.471 382.398 87.246 384.448 87.246C387.498 87.246 388.298 89.546 388.123 90.821Z" fill="#27323D"/>
<path d="M411.32 100.946V95.846H409.57V85.696H407.57V95.846H402.195V85.696H400.195V95.846H394.82V85.696H392.82V97.696H409.37V100.946H411.32Z" fill="#27323D"/>
<path d="M412.918 91.696C412.918 95.971 416.018 97.996 419.568 97.996C421.143 97.996 422.718 97.696 423.818 97.121V95.171C422.793 95.746 421.343 96.146 419.868 96.146C417.443 96.146 415.168 95.096 414.918 92.571H424.468C425.218 89.171 423.518 85.396 418.893 85.396C416.043 85.396 412.918 87.496 412.918 91.696ZM422.693 90.821H414.918C415.068 88.471 416.968 87.246 419.018 87.246C422.068 87.246 422.868 89.546 422.693 90.821Z" fill="#27323D"/>
<path d="M429.39 97.696V92.621H436.34V97.696H438.34V85.696H436.34V90.771H429.39V85.696H427.39V97.696H429.39Z" fill="#27323D"/>
<path d="M443.739 97.696L451.089 88.921V97.696H453.089V85.696H451.389L444.039 94.471V85.696H442.039V97.696H443.739Z" fill="#27323D"/>
<path d="M457.985 97.696L461.26 93.496H464.635V97.696H466.635V85.696H460.735C457.81 85.696 456.235 87.496 456.235 89.596C456.235 91.271 457.235 92.746 459.11 93.296L455.635 97.696H457.985ZM458.235 89.596C458.235 88.271 459.235 87.496 460.91 87.496H464.635V91.696H460.91C459.235 91.696 458.235 90.921 458.235 89.596Z" fill="#27323D"/>
<path d="M338.392 18.896V63.696H368.088V60.048H342.168V18.896H338.392Z" fill="#FFCF40"/>
<path d="M405.839 18.896V47.568C405.839 57.36 399.694 60.816 391.31 60.816C382.926 60.816 376.719 57.36 376.719 47.568V18.896H372.943V47.696C372.943 60.176 381.326 64.4 391.31 64.4C401.23 64.4 409.615 60.176 409.615 47.696V18.896H405.839Z" fill="#FFCF40"/>
<path d="M463.565 18.896L444.173 47.632L424.717 18.896H421.517V63.696H425.293V26.192L442.957 52.304H445.325L462.989 26.192V63.696H466.765V18.896H463.565Z" fill="#FFCF40"/>
<path d="M108 30.736C108 46.608 132.512 43.472 132.512 51.856C132.512 55.056 129.312 56.144 124.128 56.144C119.008 56.144 113.376 54.8 108.256 51.408V60.56C112.864 63.12 118.624 64.592 124.832 64.592C134.24 64.592 142.304 61.456 142.304 51.408C142.304 35.472 117.792 38.352 117.792 30.608C117.792 27.856 120.224 26.512 125.088 26.448C130.08 26.384 135.136 27.728 138.912 30.416V21.456C135.072 19.28 129.696 18 124.384 18C115.552 18 108 22.096 108 30.736Z" fill="#27323D"/>
<path d="M188.349 18.896L173.052 42.192L157.693 18.896H148.797V63.696H158.396V36.048L170.236 54.096H175.804L187.645 36.112V63.696H197.244V18.896H188.349Z" fill="#27323D"/>
<path d="M212.171 63.696L215.499 55.312H235.979L239.243 63.696H249.163L230.923 18.896H220.555L202.251 63.696H212.171ZM224.715 31.312C225.099 30.416 225.419 29.52 225.739 27.792C226.059 29.52 226.379 30.416 226.699 31.312L232.971 47.376H218.507L224.715 31.312Z" fill="#27323D"/>
<path d="M263.771 63.696V48.016H270.811L282.908 63.696H293.98L280.604 46.8C286.043 45.072 290.396 41.168 290.396 33.488C290.396 22.16 281.308 18.896 272.604 18.896H254.171V63.696H263.771ZM263.771 27.344H273.051C277.083 27.344 280.604 29.072 280.604 33.68C280.604 38.224 277.083 40.016 273.051 40.016H263.771V27.344Z" fill="#27323D"/>
<path d="M294.266 18.896V27.536H308.026V63.696H317.562V27.536H331.322V18.896H294.266Z" fill="#27323D"/>
<path fill-rule="evenodd" clip-rule="evenodd" d="M60.9999 82.6666C60.2635 82.6666 59.6668 83.2636 59.6668 84C59.6668 84.7365 60.2635 85.3331 60.9999 85.3331C61.7364 85.3331 62.3334 84.7365 62.3334 84C62.3334 83.2636 61.7364 82.6666 60.9999 82.6666Z" fill="#27323D"/>
<path fill-rule="evenodd" clip-rule="evenodd" d="M42.9999 78.2942C42.9999 77.0271 44.0272 75.9998 45.294 75.9998L66.7058 76.0001C67.9729 76.0001 68.9999 77.0271 68.9999 78.2942V80.9998H69.9999C71.1046 80.9998 72.0001 81.8953 72.0001 82.9999C72.0001 84.1046 71.1046 84.9998 69.9999 84.9998H68.9999V86.9999H69.9999C71.1046 86.9999 72.0001 87.8954 72.0001 89C72.0001 90.1044 71.1046 90.9999 69.9999 90.9999H68.9999V93H69.9999C71.1046 93 72.0001 93.8955 72.0001 94.9999C72.0001 96.1045 71.1046 97 69.9999 97H68.9999V99.7059C68.9999 100.973 67.9729 102 66.7058 102H64.0001V103C64.0001 104.105 63.1047 105 62 105C60.8953 105 59.9999 104.105 59.9999 103V102H58V103C58 104.105 57.1046 105 55.9999 105C54.8955 105 54.0001 104.105 54.0001 103V102H51.9999V103C51.9999 104.105 51.1045 105 50.0001 105C48.8954 105 48 104.105 48 103V102H45.294C44.0272 102 42.9999 100.973 42.9999 99.7059V97H41.0001C39.8954 97 39 96.1045 39 94.9999C39 93.8955 39.8954 93 41.0001 93H42.9999V90.9999H41.0001C39.8954 90.9999 39 90.1044 39 89C39 87.8954 39.8954 86.9999 41.0001 86.9999H42.9999V84.9998H41.0001C39.8954 84.9998 39 84.1046 39 82.9999C39 81.8953 39.8954 80.9998 41.0001 80.9998H42.9999V78.2942ZM57 84C57 81.7907 58.7909 80 60.9999 80C63.2093 80 64.9999 81.7907 64.9999 84C64.9999 86.209 63.2093 88 60.9999 88C58.7909 88 57 86.209 57 84Z" fill="#27323D"/>
<path fill-rule="evenodd" clip-rule="evenodd" d="M55.9999 66C69.2547 66 80 55.2547 80 41.9999C80 28.7451 69.2547 17.9998 55.9999 17.9998C42.7451 17.9998 32.0001 28.7451 32.0001 41.9999C32.0001 55.2547 42.7451 66 55.9999 66ZM55.9999 71.9998C72.5684 71.9998 86.0001 58.5684 86.0001 41.9999C86.0001 25.4314 72.5684 12 55.9999 12C39.4314 12 26 25.4314 26 41.9999C26 58.5684 39.4314 71.9998 55.9999 71.9998Z" fill="#FFCF40"/>
</svg>
