<svg width="22" height="22" viewBox="0 0 22 22" fill="none" xmlns="http://www.w3.org/2000/svg">
<circle cx="11" cy="11" r="11" fill="white"/>
<path d="M4 10.7725V10.7527C4.17573 8.45577 4.99582 6.73306 6.4212 5.64399C7.82706 4.53511 9.35007 4.00048 11.0098 4.00048C12.7476 3.98068 14.3682 4.57472 15.8131 5.7628C17.2775 6.93107 18 8.67359 18 10.9309V11.0695C18 13.3467 17.2775 15.0496 15.8131 16.2179C14.3487 17.406 12.728 18 10.9902 18H10.9121C9.21339 17.9802 7.65132 17.3862 6.20642 16.1981C4.76151 15.0298 4.01953 13.2279 4 10.7725ZM10.5802 7.66372V4.53511H10.1116C10.0139 4.65392 9.93584 4.79253 9.85774 4.91134C9.77964 5.03015 9.70153 5.14895 9.62343 5.28756C9.54533 5.40637 9.4477 5.56478 9.38912 5.68359C9.31102 5.8024 9.25244 5.92121 9.19386 6.05981C9.07671 6.25783 8.97908 6.45584 8.90098 6.63405C8.80335 6.81226 8.72524 6.99048 8.66667 7.14889C8.78382 7.22809 8.9205 7.3271 9.07671 7.3865C9.25244 7.44591 9.42817 7.50531 9.60391 7.54491C9.79916 7.58452 9.9749 7.60432 10.1311 7.62412C10.3068 7.64392 10.463 7.66372 10.5802 7.66372ZM11.4003 4.53511V7.64392C11.4979 7.64392 11.6151 7.66372 11.7322 7.64392C11.8494 7.64392 11.9861 7.62412 12.1032 7.60432C12.318 7.56471 12.5718 7.50531 12.7671 7.44591C12.9819 7.3667 13.1771 7.26769 13.3138 7.14889C13.0795 6.57465 12.8257 6.11922 12.5718 5.68359C12.318 5.24796 12.0251 4.87174 11.7127 4.55492V4.53511H11.4003ZM9.29149 4.71333V4.69352C9.15481 4.75293 9.01813 4.85194 8.86192 4.91134C8.72524 4.97074 8.54951 5.04995 8.41283 5.12915C8.13947 5.26776 7.86611 5.42617 7.59275 5.60438C7.33891 5.7826 7.08508 5.98061 6.87029 6.17862C6.9484 6.25783 7.04603 6.33703 7.12413 6.39644C7.20223 6.45584 7.29986 6.53505 7.39749 6.61425C7.47559 6.65385 7.57322 6.71326 7.67085 6.79246C7.76848 6.85187 7.88563 6.93107 8.00279 7.01028C8.159 6.65385 8.3152 6.27763 8.51046 5.94101C8.70572 5.58458 8.9205 5.24796 9.13529 4.95094C9.15481 4.91134 9.17434 4.87174 9.21339 4.83213C9.23291 4.81233 9.25244 4.75293 9.29149 4.71333ZM15.2664 6.17862V6.15882C14.7782 5.7826 14.3487 5.46578 13.9191 5.26776C13.4895 5.06975 13.06 4.87174 12.6695 4.71333C12.9819 5.03015 13.2552 5.42617 13.431 5.8024C13.6262 6.19842 13.8215 6.61425 13.9777 7.01028C14.0558 6.97067 14.1534 6.93107 14.2706 6.85187C14.3682 6.79246 14.5049 6.73306 14.622 6.67366C14.7392 6.59445 14.8368 6.51524 14.954 6.43604C15.0711 6.33703 15.1883 6.25783 15.2664 6.17862ZM14.9344 10.5943H17.1799C17.1799 9.86167 17.0237 9.16862 16.7308 8.45577C16.4575 7.76273 16.0669 7.18849 15.5788 6.69346V6.67366C15.4812 6.83207 15.3445 6.97067 15.2078 7.06968C15.0516 7.16869 14.9149 7.24789 14.7587 7.3271C14.6611 7.3865 14.5635 7.46571 14.4658 7.50531C14.3682 7.56471 14.2315 7.60432 14.1339 7.66372C14.212 7.82213 14.2901 8.00034 14.3682 8.15875C14.4268 8.33696 14.5244 8.53498 14.5635 8.71319C14.6806 9.03001 14.7587 9.36663 14.8368 9.70325C14.8954 10.0003 14.9344 10.3171 14.9344 10.5943ZM7.86611 7.66372V7.64392C7.7099 7.56471 7.53417 7.50531 7.39749 7.4261C7.26081 7.3271 7.12413 7.22809 7.00697 7.14889C6.88982 7.08948 6.77266 7.01028 6.67503 6.93107C6.57741 6.85187 6.4993 6.77266 6.4212 6.69346C5.91353 7.18849 5.54254 7.74293 5.30823 8.39637C5.05439 9.04981 4.87866 9.78246 4.80056 10.5745H7.20223C7.20223 10.0201 7.28033 9.48544 7.41702 8.95081C7.53417 8.39637 7.7099 7.98054 7.86611 7.66372ZM10.5802 10.5745V8.29736C10.424 8.31716 10.2287 8.31716 10.053 8.29736C9.85774 8.27756 9.66248 8.21816 9.48675 8.15875C9.33054 8.11915 9.13529 8.07955 8.97908 8.02014C8.80335 7.98054 8.62762 7.90134 8.49093 7.82213C8.37378 8.02014 8.27615 8.25776 8.19805 8.51518C8.10042 8.75279 8.04184 9.01021 7.98326 9.24782C7.94421 9.48544 7.92469 9.74286 7.90516 9.96067C7.88563 10.1785 7.86611 10.3963 7.86611 10.5745H10.5802ZM11.4003 8.33696V10.5745H14.2901C14.2901 10.4557 14.2901 10.3171 14.2706 10.1587C14.2315 10.0201 14.212 9.84186 14.1925 9.68345C14.1339 9.44584 14.0753 9.18842 13.9972 8.95081C13.9191 8.73299 13.841 8.51518 13.7434 8.33696C13.7043 8.23796 13.6653 8.11915 13.6262 8.03995C13.5676 7.94094 13.5091 7.88153 13.47 7.82213C13.2552 7.98054 12.9623 8.07955 12.6109 8.15875C12.2789 8.23796 11.8884 8.31716 11.537 8.33696H11.4003ZM7.20223 11.228H4.80056C4.80056 11.5646 4.85914 11.9408 4.95676 12.3962C5.05439 12.8715 5.24965 13.3071 5.46444 13.7823C5.56206 14.0199 5.67922 14.2576 5.79637 14.4952C5.93305 14.713 6.08926 14.9506 6.24547 15.1684C6.36262 15.0892 6.47978 15.0298 6.57741 14.9704C6.69456 14.911 6.83124 14.8318 6.9484 14.7724C7.08508 14.713 7.22176 14.6536 7.37796 14.5744C7.51464 14.515 7.69038 14.4358 7.86611 14.3566C7.7099 13.8615 7.53417 13.3863 7.41702 12.8517C7.28033 12.3368 7.20223 11.822 7.20223 11.2478V11.228ZM10.5802 13.5447V11.228H7.86611C7.86611 11.3864 7.88563 11.624 7.92469 11.8616C7.94421 12.0992 8.00279 12.3566 8.04184 12.614C8.11994 12.8913 8.17852 13.1685 8.25662 13.4061C8.33473 13.6437 8.41283 13.8417 8.49093 14.0199C8.8424 13.8813 9.19386 13.7823 9.42817 13.7229C9.68201 13.6437 9.91632 13.5843 10.1506 13.5645H10.3654C10.4435 13.5447 10.5216 13.5447 10.5802 13.5447ZM11.4003 11.228V13.5249C11.537 13.5447 11.6932 13.5645 11.8494 13.5843C12.0251 13.6041 12.2399 13.6437 12.4156 13.6833L12.7085 13.7427C12.8061 13.7823 12.9233 13.8021 13.0209 13.8219C13.1381 13.8615 13.2552 13.8813 13.3724 13.9209C13.47 13.9605 13.5676 13.9803 13.6457 14.0199C13.8996 13.3665 14.0558 12.8319 14.1534 12.3764C14.251 11.9408 14.2901 11.5646 14.2901 11.2478V11.228H11.4003ZM17.1799 11.2478V11.228H14.9344V11.3468C14.9149 11.723 14.8563 12.1586 14.7782 12.614C14.7001 13.0497 14.5244 13.5645 14.2901 14.1982C14.6025 14.3566 14.8954 14.515 15.1297 14.6734C15.364 14.8318 15.5788 15.01 15.735 15.1684C16.0669 14.8318 16.3598 14.3764 16.6137 13.7823C16.8675 13.2081 17.0432 12.614 17.1409 11.9804C17.1604 11.8616 17.1604 11.7428 17.1799 11.624V11.2478ZM10.5802 17.2674V14.1783C10.0921 14.2576 9.68201 14.3566 9.3696 14.4358C9.05718 14.515 8.82287 14.5942 8.66667 14.6734C8.78382 14.9704 8.90098 15.2278 9.01813 15.4654C9.13529 15.6832 9.27197 15.9209 9.38912 16.1189C9.42817 16.1981 9.50628 16.2773 9.56485 16.3763C9.62343 16.4555 9.66248 16.5545 9.72106 16.6337C9.77964 16.7327 9.83821 16.8515 9.89679 16.9703C9.9749 17.0693 10.0335 17.1881 10.1116 17.2674H10.5802ZM11.4003 17.2674H11.8494C12.0251 17.1287 12.2008 16.9307 12.3375 16.7129C12.4937 16.4951 12.6695 16.2377 12.7866 16.0199C12.9233 15.7625 13.06 15.5248 13.1771 15.2872C13.2943 15.0496 13.3919 14.8318 13.47 14.6734C13.2552 14.5942 12.9623 14.515 12.6695 14.4358C12.3766 14.3566 11.9665 14.2774 11.4003 14.1982V17.2674ZM15.2664 15.6436V15.6238C15.2273 15.5644 15.1492 15.4852 15.0907 15.4258C15.0321 15.3664 14.9344 15.2872 14.8368 15.2278C14.7587 15.1684 14.6611 15.109 14.5439 15.0496C14.4268 14.9902 14.2706 14.911 14.1339 14.8318C14.0558 14.9902 13.9191 15.2674 13.7238 15.6436C13.5481 16.0199 13.2357 16.4753 12.8452 16.9703C13.3333 16.8911 13.7629 16.7129 14.1534 16.4753C14.583 16.2575 14.954 15.9605 15.2664 15.6436ZM8.00279 15.01V14.9902C7.86611 15.0694 7.65132 15.1684 7.43654 15.2674C7.20223 15.3664 6.9484 15.4852 6.71409 15.6436C6.85077 15.7625 6.98745 15.8813 7.1046 15.9605C7.22176 16.0595 7.35844 16.1387 7.47559 16.2179C7.69038 16.3565 7.94421 16.4951 8.19805 16.6139C8.45188 16.7327 8.7643 16.8515 9.15481 16.9703C9.01813 16.8119 8.9205 16.6139 8.82287 16.4555C8.72524 16.2971 8.60809 16.1387 8.51046 15.9803C8.41283 15.8219 8.33473 15.6436 8.25662 15.4852C8.159 15.3268 8.08089 15.1684 8.00279 15.01Z" fill="#08354F"/>
</svg>
