<svg width="22" height="22" viewBox="0 0 22 22" fill="none" xmlns="http://www.w3.org/2000/svg">
<circle cx="11" cy="11" r="10" fill="white"/>
<path d="M11 0.440033C5.16783 0.440033 0.440033 5.16783 0.440033 11C0.440033 16.8322 5.16783 21.56 11 21.56C16.8322 21.56 21.56 16.8322 21.56 11C21.56 5.16783 16.8322 0.440033 11 0.440033ZM15.0612 12.3541C15.0612 12.3541 15.9951 13.2759 16.225 13.7038C16.2316 13.7126 16.2349 13.7214 16.2371 13.7258C16.3306 13.8831 16.3526 14.0052 16.3064 14.0965C16.2294 14.2483 15.9654 14.3231 15.8752 14.3297H14.2252C14.1108 14.3297 13.871 14.3 13.5806 14.0998C13.3573 13.9436 13.1373 13.6873 12.9228 13.4376C12.6027 13.0658 12.3255 12.7446 12.0461 12.7446C12.0106 12.7446 11.9754 12.7501 11.9416 12.7611C11.7304 12.8293 11.4598 13.1307 11.4598 13.9337C11.4598 14.1845 11.2618 14.3286 11.1221 14.3286H10.3664C10.109 14.3286 8.76813 14.2384 7.58013 12.9855C6.12593 11.451 4.81693 8.37323 4.80593 8.34463C4.72343 8.14553 4.89393 8.03883 5.07983 8.03883H6.74633C6.96853 8.03883 7.04113 8.17413 7.09173 8.29403C7.15113 8.43373 7.36893 8.98923 7.72643 9.61403C8.30613 10.6326 8.66143 11.0462 8.94633 11.0462C8.99975 11.0456 9.05222 11.032 9.09923 11.0066C9.47103 10.7998 9.40173 9.47433 9.38523 9.19933C9.38523 9.14763 9.38413 8.60643 9.19383 8.34683C9.05743 8.15873 8.82533 8.08723 8.68453 8.06083C8.74152 7.9822 8.8166 7.91843 8.90343 7.87493C9.15863 7.74733 9.61843 7.72863 10.0749 7.72863H10.329C10.824 7.73523 10.9516 7.76713 11.1309 7.81223C11.4939 7.89913 11.5016 8.13343 11.4697 8.93533C11.4598 9.16303 11.4499 9.42043 11.4499 9.72403C11.4499 9.79003 11.4466 9.86043 11.4466 9.93523C11.4356 10.3433 11.4224 10.8064 11.7106 10.9967C11.7482 11.0203 11.7917 11.0329 11.836 11.033C11.9361 11.033 12.2375 11.033 13.0537 9.63273C13.3055 9.18202 13.5242 8.71366 13.7082 8.23133C13.7247 8.20273 13.7731 8.11473 13.8303 8.08063C13.8725 8.05911 13.9194 8.04817 13.9667 8.04873H15.9258C16.1392 8.04873 16.2855 8.08063 16.313 8.16313C16.3614 8.29403 16.3042 8.69333 15.4099 9.90443L15.0106 10.4313C14.1999 11.4939 14.1999 11.5478 15.0612 12.3541V12.3541Z" fill="#08354F"/>
</svg>
